<mxfile host="65bd71144e">
    <diagram id="8Z0YnnHfgw_Dbe6pglb5" name="ページ1">
        <mxGraphModel dx="643" dy="523" grid="1" gridSize="10" guides="1" tooltips="1" connect="1" arrows="1" fold="1" page="1" pageScale="1" pageWidth="827" pageHeight="1169" math="0" shadow="0">
            <root>
                <mxCell id="0"/>
                <mxCell id="1" parent="0"/>
                <mxCell id="25" value="" style="whiteSpace=wrap;html=1;labelBackgroundColor=none;labelBorderColor=none;fillColor=#d5e8d4;strokeColor=#82b366;labelPosition=center;verticalLabelPosition=bottom;align=center;verticalAlign=top;" parent="1" vertex="1">
                    <mxGeometry x="61" y="20" width="489" height="430" as="geometry"/>
                </mxCell>
                <mxCell id="24" value="Azure" style="whiteSpace=wrap;html=1;labelBackgroundColor=none;labelBorderColor=none;fillColor=#fff2cc;strokeColor=none;labelPosition=center;verticalLabelPosition=bottom;align=center;verticalAlign=top;" parent="1" vertex="1">
                    <mxGeometry x="100" y="170" width="410" height="240" as="geometry"/>
                </mxCell>
                <mxCell id="4" value="OpenAI Service" style="shape=image;verticalLabelPosition=bottom;labelBackgroundColor=default;verticalAlign=top;aspect=fixed;imageAspect=0;image=data:image/png,iVBORw0KGgoAAAANSUhEUgAAAPMAAAD0CAMAAAB5LeC1AAAAAXNSR0IArs4c6QAAAARnQU1BAACxjwv8YQUAAAAzUExURQAAAAAAAAAAAAAAAAAAAAAAAAAAAAAAAAAAAAAAAAAAAAAAAAAAAAAAAAAAAAAAAAAAAKMFRskAAAAQdFJOUwAQIDBAUGBwf4+fr7/P3+8FUYRsAAAACXBIWXMAAA7DAAAOwwHHb6hkAAAQlklEQVR4Xt1d16KjOgxc0gsJ9/+/9lKcxJZGxYWUM0+7J4QwWGUsy/Dvbeg2M8L//ja63fHc3+7Dfw/cr9fTcRc+/XPodqf+HpgyXC/HLhz3Z9DtL6+xFdCf/tB4d7veJLxgOP8NF9+cRItGuB7C934Xu6tziCOcw3d/E7tLoJGJ32W9PeePccDwmxbelTOecNuH8/wQdrdw8cX4NQOvHOQFw08N9bZ6kBf80FAfGwzygtuPaJTuHC64BYaf0KPdNVxuIxzDeb8YW5fSHO63eEap4uudemNQHvrzcbd9zBs32/3hZNpFH47+UuiU+9OTbYL9qQ9HYHz1SHdKjrqdtuEoiL0mzV+ku812wuZrKgwK5V4lPGNzCscCnENVKQ4B9+tp9/FUJlIeHIxnFCT26/ngPPkaEJOUl/GEY1aBIeD+sfKKIEXumaq5bMrdnz5Bex9+neCcHW32hcr1/VWlDbzSorl/uZJ7b1LrYIYtnQ0ew/fz8U6lCvNM8ayoQrPf32bh0JkvhcKhOxR69ILbe1jDzFxqZvVVpf4dMRz5XyHlbWF5OMX6VaUO2GJZCG1SR5uwegQHAexW5Mu7EhWGsXJVCaTmewnlekeOsW5ViXtgye81M+snTuHMK2AXfiJCfghxMh6G2+167Xt59T7GegUWrh/yA4jDrIdxupyUWbZWeWU90jxoZ8evrSW7hl4qsuxO6t1aiTQP2pnObJp1r/eabLU59zo5i93nvJ/pDrprDmdHxWEvG/kagYwp7SHLsg1HdjeYyPJthZkWc8WcG7vRl3mGa0ZVSVwXbD7lYBFs8Osfy5Fz6mgTpOlYU/Hd7XnU9A+zITTv+UYpTLszhkFHN2YJdF+959/puXUo6wvEBZY2GWsjpcVrOMCAadalQ7OF56237m4vB1vX2buTwbhiegBJ11q3esGuRGXlp7p2V1izqbJuY4gu4TAFhtAc8gviBE0LVRNjYz5jmnbr/IQA686l57VnP4bfWEKzVSMcIH0PH+XB0RtzC4cKWNeRY4AfKrmdnlqVOr0w7tlwaSUdRmzCSSPkD3TnKsEq0vYdjhwBLDLk6u6NVZFYIOdVw0qG5rMfnh2G8IkTO32MnpCscx2hqaLjNzlroL0tD5LLGN9fZ6mFlyZzBtrdyyioHf37NUJTBf9Z/731LyDhCYa6mLyGWT/ArNuhEhdkrJnBcwLHesIvNLtp5nrL65U5hF95wmvcGmXqpjA9C30mE9z56ZXospI4u9u+KKZQ7o8080POoje7hWa6Bp9Rb2MDbejEBbIv9rvuXxf+/QC8HGEa5Xdkqlj9fQT0+lxRTGpbCo19Ls44NbttFBVx3cmN2ZgtfXD/08sqizkXOHIK57oBG2izdCX1bz57Ywo5+4WmrFidjWfUSMzILVROX6GniHO5I6e4eWyFJQ3DK4S6afStEs5uX7QmYqOB26dixq2bGHTm1CzzOffu/GQynmA7CTUV3aFRZiZelMu5lVm/YOYtGrlVh0byiQaOXM7exGquwUe46gbOaCh3HalkFitzOfsM22fWL+h5i55LiXyg5YunhzU4FzR7qnkrCScj5BAAAhg48wqcsSP3hrErDXB08OA1zgABDNyg5pw3cEozhT7LxcVJKZ1niIF7Gw6IgI5tzBk78iPYG8sBktHSICauXPGbChff2nLGQjOS5mrB5TULSEHLYtJ0EgwzPF9LztiRUx5WkR1N1ug1SnVKHrRxPmjHWTfrF6xdt/w66TUKooR39gltuq044wXeAe5tMOrGPLuQ4wXObJilNt1GnIX8JKkHvXTM8hY9efgzAbsESek04YyzkLZ9xtq+kF4u9Ybw5xQsgondGA04ex05xd5w6/iGuTgz04ZUJlRzFtbgHXNsK2+9vDH85QEct+llyE03tZwFR3Yt5njzFq1HQ87MtOVpdh1nodnz7q0PWg9+Wdya0oGahFkNjDwzajgrM0bRlyis7pTJrakOg9qThlGlJ6GCs7oG76/aW269YXMMuKZGb79y14s5G2vwZvXjBTwTe+FM7wrKu8ydlYhSyNlVCJE0AYPvITBPIBOi90UrmhVxtpo9H1CrHwkMA0+BhpDailYcLeGM8xO8Da6q/QzDwGMgp6EhLIo7DPmcsdAcjsLUwb3G7t5NCyMy9Q7tV3M5HzShCaqOI+ApEawySgBMVeGzB9QaeC5niKfQxGPVLG8tQJfoki0PNOCcCE2hOuQ1cE+vIgphVLaorTbVnNn8CY+VP28ZchSbLZUt6ipYJWfYNQTHKiNv6W4NsxC90eqP1XEWCiE4tPvzFo6FAZBOTqqq4qx0DeEQ3CRvwXNQzupctpyzUQjBbg1PjyBPYCAdylm9uaWc7fZ0HILr8xasf9DfWoOzq2sIh2B/3hIiONIk63N2dw0Jbh0+NSHEMvB9Wq9Rh6SAs1XRTAAt1J23hEkmj50rc3bb5gJcEfDmLRwUuEtTzk3jdkF7Oh4sb+ckNBQmp6kXNNVharIXAJ5+MgH+FAfcMUrF2K9w9uYtVuqaQHyDWkPTOUZLzt7YgL5PrJu2ImiloQ9zduYtdIL0QiiNpjWD1px9eQsEMlIhok6vGdDHOfvyFlgjSu9VdIkztDv5Zs74YVKOvMXzdGq+9KZAHgFv5nwRpg7aJS7g4jsZShrEmtf0M5FwLp1v8a3BCS32sWI67+dcOt/iBhILD8pDUyWf4Fw432J3Khlo+qlm3OGQB+DvNudcNN+KThMQWwaL7IrZ0DuOSK/AWSr/a3mLVRbja2XG/fopBvbT4GavwVmabyl+yOJUYr/0bMqzZYCCZzd7Hc6CgSv2zcZHNW7l7qFaNCnKrsUZSQ2txsHGJz4dM24liuFSW+LW63FG5X92zAvMfsPfZzBX0YQOGulEJKzIGeUt2RHZzuD4ctiH6qOocLp8dZquypkPkFx+Yu3KqnFrFjMCq+CHga/MmTp1RhRLSgfcXvUZm7Dwu8S+7+GsTiWi3wlQGuNmYBU8u/X3cGb2m7gsH2goK2Pghd/r5os4M1pJEuZzL73QPQMvlpy/iDO9wjQfcQcd7CKM2bD0ac56gZOHbg9pvXP185wpKyK2wJC5npGP81bApzmzZJ4yAgOt9009oRj4xzlHsWUGCVIoIol7DRPI2zk/zplOn8gFwUcj+UgLcvQLONOBpAfD1a3euWKO3frq/HaE+MGJ9Zxp4GYH0wNmeN9IpcpRN9JN7/WcI6OZwS8H+6WpyAIUOeoF6fV+B2eh98b9JhlRjvrAJE49Z+qvwOyABJ3hHitBjoZPVYBNG+05o2IIdOkR7jeQYTnqWEJFOyLfw5md8Ql3MMJyNNrPiIA3bbT3Z2hxMGHN8AcjnLeUJVRpL1I9Z1r1gpw1+ewORkLeEtxa3n1Vz5nSgQeLMnKGN23921KhOwO6NTbrGe05Q7EhiMgHXP0cM4TqKJ2fylp9RD1nejCyVOrzHN4+RMlNkkUPY1NhPWdqbuHPCXB+TeHtQ5Tc+pkvzKcr1XMmxgYrm7o7P+B3a2zgy2ViR+6j217NmWYhOE003PkBv1vjLYKjmhWfrtRyLkklFjqhpD053BocNWuNuKJ7MZxGudeSMz0WGagdwl5wP2HZrI4+sGxhaMmZmi1KVZoi4XDLUevpIjMee5EacmaiEhknPZ8R0mrlaITXFoaGnGkWgjVNynEvpJsnauVoQLwXqSFnmhjg+YD9W08P8OctWWMme5HacY7OtMClPOe7n/0wKwmCBCHvZGvHmZkWNEp6UeEgnG6ecMpRLDTZXqRmnFmbAV6iCB8+Ef5sphuHHO2wufC+zWacmY6GRRK6fhPJUyvdWG4tCE1QPWnFmT/8Dg4MlWGJMRjpRnVr6ekVSNa04syGGZs25ZxKcitviXJUcORJaAI04syHGR+o2PYMJd3MwHIUu4W4V7YRZxZ3hY5OY4l6hLQY9wCXo9iRlU3vbTizljccwUaEj58At8ZwayJHnfkpRhPO4JHLkufRI9GlZchRgbGe2Zpw5jFT3CtHLxH7nFeOCvnJUDAtOHNjlJtj6EVKiw8eOYrzk/3y3wacgWXL+oGWCeULtOSo+nQlFfWcwSs2laZdykSKdSPc1Y8Iro2t1ZzRS6EVmUhrZkrzurP6EcH19Ip6zoiy1vXFiim6KeaUkjxmPaOSM3z1t6wGxi+EY54AASKGlbeekIQmR7zSVcAZUlb3dLOiAfzVGJYcXeA06/GSk9CXzxlSNt5RTU+oOvQCS46qQjMFXczJ5oxHwEiPTKZ6Iq3u1m5H5homlzOWDZatMoc2JcQExa39L/8FyS+PM7Tr0crMW04N1dqjECDJ0UJHDsjiLLzi1tGRzfSV1xeRXdlC8wGc6zM4C8+5drUxsmYpXz/zBPqrFY4c4Oa8g0p3gqIkn2AObew6ipF6pPvpSnjGOQEqRs55hx15glWaXEBPaST0FC8TrXPkAGiXlOBFUQg+yrH0C/CO14yl5bOvNusJWEvAjiQMJ2Ueuc38RrHdeglrVjkC+6JykwjclMHM2N5pVQbNrEcI7fJCVuTwUwZRzNCrhbC6hqQdAvq3nsh7ST6LYllhzAvNkUeIic7Z8uLdXhAAzpp3AgfU9r8RcqLjMRbB3+ITwAda3QOeD8OR1UTnqlPk733hHu2V3T4YRSVdv/EBYfB3AUQA580IggYsRzYqKnbYdu8pSAAGupVL15j1BLmnPsBdoKBATlNiMBQWY/uC+dpbAv+8hgPZX1bCgyjNTxHUeF/DWMiCnnmZAl1o+ioqfCX9hTrGI+Cmo1zlHaPWkRdIe6HG79cyHgGnL85tshyW0PRWVARTGU7+Wb4CFLtH0mU3s4Ejz4CvX7+dd/VDvACbUUm+LxeaFKwXaLgemozwA8KV5qZ805H9U1UWwZrP+KQn1Gclra5KaBKwYa4Jqhgiae2dnwk6y5Hdzf4TeKJaoZohkvZ1q1uM/YXCBWyYi9OIBvhchwDrNSVyzTkgVxnzoN1CDnPA5PBAfxbHaXs0hrhANTHFsE7Narx4fbCG64n6VLc9aCXnBf6luyf8nX3VMCdvY0i7Xk6n4/FwPJ4vvUl3QqYjTwA3v2lmTuDrJMhBXklyAYgsa1Qmn3CUYzJQNP1Ba8trld0X5PQHWfALzRirVqswrA5PN/qyyg246WsF7ReEvoVMlM7q0US0vmpjg4mgbOQJzQioa2IVCcZgvYTYQkF+WoC6NoZ1A9gLJW2tDxSXYONna72wdgCLYDzyUEFpMsWBxPWkwmawu/4ElFmjkDBKjaYUx4zmhgQF9ij0fL0jZhN05qQJw/9okwXYld/qzDG2pyIbz6oqSeXhgocMtsLuhF/Bo8M7RnKNxe7fXBn7I58rD/35qFSFPK+B7fbi9xsv/5diu98fTiOOx+Pu0Sgll9Js1jvFcTL7RN4LbTVtlKHipetVpaIWgvdBLaWN6M+8qnS86F/66lGeYJGecO+nutLheDpfHBExuxvo/dB8ugSFC4RvhiAqylDWG/N+1M+6nyidfb8fvrY9G18esFO4t9qpKC44fAhGe5MDJQXxD6NyqIdfCV4piisNI37NrF8oZV1aHv4O4AeS62jR9PVZZFaVht+16hgZ5ZXh9P3i2ou9MXWaMVwPv27UBDvVyIf+5N+g9VPYH3g5bbjfzsc/yveFzW6/HyfPU2PGfvcWtv/+/Q+No2CsQE7d3QAAAABJRU5ErkJggg==;" parent="1" vertex="1">
                    <mxGeometry x="414" y="190.26" width="64" height="64.26" as="geometry"/>
                </mxCell>
                <mxCell id="17" value="App Log" style="edgeStyle=none;html=1;" parent="1" source="5" target="7" edge="1">
                    <mxGeometry relative="1" as="geometry"/>
                </mxCell>
                <mxCell id="19" value="Chat Log" style="edgeStyle=none;html=1;startArrow=classic;startFill=1;" parent="1" source="5" target="9" edge="1">
                    <mxGeometry relative="1" as="geometry"/>
                </mxCell>
                <mxCell id="20" value="Message" style="edgeStyle=none;html=1;startArrow=classic;startFill=1;" parent="1" source="5" target="4" edge="1">
                    <mxGeometry relative="1" as="geometry"/>
                </mxCell>
                <mxCell id="5" value="Functions" style="shape=image;verticalLabelPosition=bottom;labelBackgroundColor=default;verticalAlign=top;aspect=fixed;imageAspect=0;image=data:image/png,iVBORw0KGgoAAAANSUhEUgAAAQAAAAEACAYAAABccqhmAAAACXBIWXMAANH5AADR+QGceVN3AAAAGXRFWHRTb2Z0d2FyZQB3d3cuaW5rc2NhcGUub3Jnm+48GgAAIABJREFUeJztnXl4VdXZvu93nyQgMySBJGBlsK2K1Yptvw5OIIOizBJAwaGtba0D4NCWz7na2l9bJbGDtYPWibZYBZxaZ+3PjtrJqtQqCSo5CRkAUYYMZ7/fH0ksagjnJHuvtfc5676ufXmZ5Kz34ZzzvPvZaw8LHA6Hw+FwOBwOh8PhcDgcDofD4XA4HA6Hw+FwOBwOh8PhcDgcDofD4XA4HA6Hw+FwRBuxLcBhF1WElwZPROQjoH1t6zGIAq+hBQ/K+Ia3bYuxhWsAOYwqwvrBq4CFtrVY5DVo/ZQcsrPWthAbeLYFOCyyftAClIUo5PB2AJr31QDezViSZ1uAww6qJHhJrnAhEMArta3AFq4B5CovDV2I6sG2ZUQAH/RHtkXYwjWAHERXkwAut60jEoh+S8a/+aRtGbZwcwC5yCFDTkP1w7ZlWEd4mvo3r7QtwybuADDH0NUkOHjoi5DzDaCe/Lwj5KDGpG0hNnEJINc4aMjpzvz4oItz3fzg5gByCn2OfOAy1LYS61wlh735qG0RUcAlgFwif/AZwFjbMizzBP/e9k3bIqKCmwPIEfQ58skf8jIwxrYWi2wi1TZBJrzdYFtIVHCHALlC3tDPktvmb0NZ5Mz/btwhQA6gz5GP8DXbOuwiK+SjW5+xrSJquASQC+QP/TzKaNsyLPIAh2+53raIKOISQJajr9AHZYVtHdYQXqe57UwRd+6jK1wCyHZ2DD0bZX/bMizRii8L5X/earItJKq4BJDF6JOj+6Lk7K2uwHKZsOWPtkVEGZcAspkh276IyijbMqwgrJYjtv7Atoyo4xJAltK+95dLbOuwxKs0y9m2RcQBlwCylcHbv4wy0rYMC+zG13L55NbttoXEAXclYBaifxi1H312vgqU2dZiHOFzMmHLLbZlxAV3CJCNFOw8l5w0v6xy5s8MlwCyDP3niP60tlYBw21rMcyL0PcT8rHkTttC4oSbA8g2WlvOA8k18+/Ao1wmOPNniksAWYS+WDyAHakNSK7t/eV0+XjTHbZVxBE3B5BN7PQvyDnzq9zkzN9zXALIEtr3/n4VaLFtLcYQnqe13yfl05t22ZYSV9wcQLawI7UcyB3zw1vglTvz9w6XALIAfW7oYFJSBQyzrcUQijJfPrnlHttC4o6bA8gGUrKc3DE/QIUzfzC4BBBz2vf+XjUw1LYWIyh/YWDT0TKeFttSsgE3BxB32hIXgeaG+WErmlrgzB8cLgHEGP37kCE0J6qBIba1GECBOfLJpnW2hWQTLgHEmd2JS8gN8wNcJ59y5g8alwBiiv55YCF+QTUw0LYWAzzN7qbJMpE220KyDZcA4kqq4GJyw/z1+HKqM384uAQQQ/S5gUW0FFSR/Q3Ax9MT5JNb3Dp+IeESQBxpyf8KmvXmB9GrnPnDxSWAmKFPDiyioKAaGGBbS8g8QU3TVCknZVtINuMSQNwo6LOC7Df/JlJ5C535w8clgBihTxaXkK8bgH62tYRIG8hEOarBreNnAHcvQJwo8L9GdpsfYIUzvzlcAogJ+ruiUoQNwH62tYTIAxzVONOt42cOlwBig/wv2W3+1ylodot4GsYlgBiQA3v/Vjz/WPmMW8fPNDl/FqDohqoZJORslHEor3jCTfXLxjxsW9e7ULkMNFvND6rL5ejwzV+0snoRwtkgHxR0vS9yU9PS0WvCrhtlcjoBFFZWf02Ub/Lu90GBixqXjVlpSda70KeH7Y94rwB9bGsJBWG1HN24IOwyhRVV35D2w6j3lJdLG5aN/mbY9aNKzs4BFFVWXSzKdby/CQpwQ+HK6hUWZL0fz7uUbDU/vEq+H/oinoUVG6/pyvwAin6jqLLq8rA1RJWcTABFFRsvAv3uvv5Olf9tWj7mOhOauqz/zNAPkEq8AhTY0hAiu0E+Lcc2/D3MIu3m18v29XeCXt6wbOy1YWqJIjmXANI1P4AI3yyu2NjlnsMIbYnLyU7zA3Ju6OavrLo2HfMDKHJNcUVVWn+bTeRUAihaufFCRK/P9HU2jhP18dIDyEv9BzQLG4CskmPrTwuzQmFl1bWicmmmr8u1JJAzCaCn5of248TilRsz/jL1ikTblagWoJBdm75I/7xQj/t7an7oSAKmP2uL5EQC6I3590RULmtYPvobQWjqDn18+DgS+m+y7zTtDrzUJ+SYLS+FVWBvs/2ZYuqztk3WJ4CiiurlQZgfQEWvNXKc6OnlZJ/5ATknDuaHzs/a4vyPIbI6AWQy4ZcZcnHjstGBNJX3ok8WHwisJ9sagOpNMqnxy2ENX1xRfZ3C14IfWb/SuGzsd4IfNxpkbQIoWrnxwnDMD6DfLqzY8PGQxr6SbDO/8Dx9+14U1vCFKzdMDsf8APLtosqqi8MZ2z5Z2QCKVlYvCyr27wUPkVlBD6pPF38QZGHQ41rmLXwNeRHPxMzwxgZUvhOZC8MCJusaQPsxP6FfxitKSeCDpuRqlDz7M/WBbYrKWTKp8eWg36o9EdHCMMdvr8E32w8ps4usagBFK6uXATeYqKXqBXoRiz427BDQ0K+JN4tUyKT68BfxVPlr6DXaC323/dAye8iaBlBcWb0UMWN+YIO07L490BG9xJVk0ecB8hca60M6Ln83qebUz4ANJmohen1RRfVyI7UMkBVnAYorq5eqshIj/x7Z5HnecfUXfCCwL5w+UTIeTT1P9jSArXiJCTKxbqOpgkMrN3wgod5TwBgT9VRY0bR0zLdM1AqT2H/hiiqqv2jS/OK3TQzS/ABo6iqy4LPoQBHvLJPmB9i6dNzrbXk6Eag2UU+U6worq40knDCJ9ZeuqKL6i8BNGDR/w4UHvhrkqPrkiEOBuUGOaRXhOpm02cointvOG/ua8SZQUf1VE7XCIrYNoKiy+gvE3PwApPyvo3gRmLHv/QZPIw1XBvwOZURnE1DYaKKewLfi3ARiOQdQVFn9BZQfYUZ/napMalo+en3QA+ujxUcg/JWYfg7voR5fj5CpjUnbQgCGfL/qgESbPCUw2kA5FVjWsGzMjQZqBUrsEkBRRdXZ2WD+duQqEGn/p8R680EWR8X80J4EUnl6nKEkIAoVxRXVFxioFSix2vMUVVSdDXIzWWB+fbxoAr73HDH7DLpEuEIm119jW0ZXuCTQPbFJAIbNvzncPT/gJ75Odpj/CbbUR/ahmtvOG/tavmJqTqA9CVRWnW+gViDE4gto2vy+503acsEBod22qg8XHYnnPUtM3v+9omyizZsg0+sabEvZF8U3vHqgeomngJEGyqmILm1YOvZ7Bmr1isgngKKVVZ8HMXXMH7r5ARDvGhSxPmvfu60N0UVxMD9Aw4UHviriTwRqDJQTVamMQxKIdAMoWln1eURuxoxOI+bXR4o+BpwQZg0jCCtkSrwW8WxYOu4V002gsKLqPAO1ekxkG0A2mr8d7xvEPfqLPsDk+jBvtw4N001AkBuj3AQi+UUsrtj4OUV/TJaZXx8e/mmF34ddJ2Rel0T+BJlc02RbSG8ortzwQVXvSQzNCSh6QdOysd83UCsjIpcAjJvf9443s+cHVb5uok6ItIrPwribHywlgZUbzzVQKyMi1QAMm7/e973jt1x4wIsGaqGPDP8MwvEmaoWFiC6XE+uzZgXfPZqAiQuYRES/F7UmEJkGULxy42cNm3+SKfMDqK/XRmDmvsebqqyWqQ0/COO9sUnD0nGvkDLcBCo2hvZw1EyJRAMoXrnxsyr6E7LV/L8pPgrkOFP1QuBVz28NfRFPWzReNO4/RpsA+v2oNAHrDcC0+VOSMhb7O1HPi/NSU7vF13KZvmW7bSFhkqtNwOpZABvm37r0wBcM1HoH/c2I4xV9zGTNIBHVz8n0hlts6zBF0fUbPkTCexIoM1BOFTmvadnoHxqo1SXWEkBxZfVZ2W5+ABW9IgJ36/VoU5VVuWR+6EgC6CRyJAlYaQDFldVnqfJTQ/UbrJn/oeFTUTnGdN2AeNFLJbL2uL87GpeNfdl4E1hZfY6BWu/DeAMwbf6E71sxP4DiXW579r6H2w5RKZcZyZ2hvDExYI8mUGugnIjwAxtNwGgDKF5ZfaZp82++cNy/DNR6H/pQyYmgR9mo3VtE9RyZXmfk4qgo09EEJmKwCRRVVn/JQK13MNYAildWn6nCzwzVtGp+AG1f4y92KHKTnFR/h20dUcF0E0D5ockmYKQBFFVWL1TJjT0/gD444mSU/4lAlM90e957Oy/rlr/qLdncBEI3ZFFl9UKUO4FE2LWIgPkBFK6wWb+HvCVeolzKw1zEM740Lhv7siYwNieA8sOOx96HSqgNICfN/8CImUBIS4eHhgp6lpyYDHURz7jTdP6Yf3c0gToD5QS4KewmEFoDKK6oXoDqHZgx/1bEO9G6+RVR4bIIRPmMNlUq5CQDi3hmAR1NYCJZ0gRCaQDFFdULFL0TJC+M8d/DVsSb0rj0AEMrxHbDA8Nno7Hb+//F21kU+yWuTGKhCfywsLL6jDAGD7wB5Kr52/f+EreZ/62SkAVS/mKLbSFxw3AT8ES5JYwmEGgDKK6sKs9F8wPwQMk8lMNtx/kMNhWfs+REs4t4ZhNN54/5t6qYmhMIpQkE1gCKK6vKVbnLkPm34ftTo2J+VUTRy23ryARVrpOZdhbxzCaalo9eb7wJVFSdHtiAQQxiwfxTGi8c95yBWunxwIhy4DDbMjLgaW/g5rgdrkSWpuWj13voNJBGA+U8QQJrAr2+HTjXza9X4emRJf9A+YhtLWlSL9p2hMyKzjp+2cLwiqrDfLzHQYsMlEup6FlNS8f26qrNXiWA4oqq+blsfgAmjFgQI/P7ov5iZ/5wqF829nnP8ycbSgIJUbm1sLJqSW8G6XEDKK6omq+wypT5FX9q1Myvq0koEptjf1Gukln1j9rWkc3UXzD2n3FqAj1qADbM37Rs3LMGamVGn9JFKAdHYEY/ne0Jmusiu4hnNmGlCVRULe7JizOeAyheWXWKCr/IdfPrahLap+RF4MO2taTBJsknFot4ZhPDb6w6XH15XKHQQLmUomc2LRt7ZyYvyqgBlFRWlbcZPOaPqvkBdG3J6SrcZltHmmwAqbYtInKI7hLlWZpTK6W84e0wShSvrP4owmNRbQJpN4Bxtycv2L6tuUJ9Aw8SFd7UlE5tunDsX0Kv1QP0SfL0zZL1wIG2tTgCQHhG/l53rFyFH8bwJpuACNpvcP4lr505Kq21G9OaAxh3e/KC7VtbKp35O3izZAnO/NmDchRHlE4Ia/iG5WP+gTJZIPQl1VSRndtav3vAbckL0/n7fTaAcavqzt++raVCVXuvbl/EwPx6M/kqXGZbhyNgUuwIc3ijTQDYubX5+nSaQLcNYNyquvO3N+6uVF/dnr+TESPOQBlrW4YjOFTkZzK3dn3YdaLYBPZq7DF31J739tbmG42ZX5nWtGzMn0Ov1Qv0ZvJ1eMnLwBjbWhxBoWulfnO5fJFWUxWNzgkA/Yf1uXDj6WUru/p9lwnAmX8vjCj9LM78WYQ8Kn0GLjRpfuhIAp5MAbaEXUuBHVuabxh9e3J5V79/n8Gd+btGV48v0Pyml4HRtrU4AuEZ6acnyLTNoR77d0fxjRuPUF8fA4aFXWtvSeBdCcCZvxsKmj6PM392IPxJvLbpNs0P0HDB6L+LJ5MxmQRuSy7d8+fvGP3AVbXlbzY2/9KZ//3oQwf20ea3XwVG2dbi6C36D8nvM0lOfn2rbSWdFFZs+LjgPQIMCbuWeKL9hhbMf21J2T3QkQDKbk4WvbW19S4j5oftvnBCXMwPQPNbX8CZPxv4l2je5CiZH6Bp2bhnFX8qsC3sWuqr7H6r9ReDfvrGMOhoAH378ZNUa8rE5b3bfZUTtlww5k8GagWC3jq6rypfjcDNPG7r1SaviN82TebWhH4Kric0LRv3rPo6DeHNsGulWvz8wr55P4KOBrDr7bZpYRcFdgg6Y8vy0X80UCs4BjV/CWSkbRmOXiC8LsoUmddoYlGPHtN04di/4MskDMwJNO9onQ4gA7+/qbBPW2vYty227/ljZn69dXRfHbx7A1BmW4ujx2ySPD1GZm6Ozc1QRSs3TkD0MWBomHV8r22wN5RUSZhFEvme7n/Q4K/GzfwADG7+Ms78caZekKlxMj9A4/LRfxt+QP8vJfK9UK+/H9y/X2moCcDLE8YfPYLBxX13IJy8tlSeCqNOGOjDI/rrDtkAjLCtxdEjGgWdKHM3v2BbSKbMrNEPex5PvL2lpeyFp+poaw3lJkUkf+dA763zRjUV7JdoDnrwPcwP0B/l/llJPTroOqHxlnwZZYT9ySu39WB7U0ROiKP55yX1IBGeQikbMLSAQ48rIS8/+AW8+vbP291w7vi3PYD+QwoCnZVP5HscekxJp/k7GSDwUByagN4+or8KF9vW4egRO0S8k2VObSTWjMiEOUk9uA2eFHjnsHzA0AIOOWYEiYCbQP+hBb+HjrMAeQP6nJFX4AWSMxJ5HuOPHs6goj5d/XqAwEMzk3pMELVCo1/ifJDh7ddJuS1G2y7xOVnmJp/p+oONLnOSerAPT+xp/k4GFfZhfIBNIL9Pwh80MO8s6GgA608a+lrh/v0ukV6O/1/z9+3uzwZ48JuZtTqxd9XCQVcXD1DRtB6m4IgULaJ6isyve8q2kEyZWaMfVni8K/N3MqiwD4cG0ATEE0rGDPjfZ6cVvgF73Avw4oziG0rGDLihp03ASwiHHDWcQcXdmr+Tfp7ywJw6ndSzaiHi5S0Fim3LcGSCtAoyX06pe8i2kkyZVauHeMLTQOm+/nZgL5OAeMKoDw++8e8nDPt/7/zsvX906P0N362v2nGRn8ETgLxEx4Tf8LTMvyc7xWPGmhJ5ItMXhoHeOWyQ7tenGgN3ZzkCIyUii2Vu8pe2hWTKvKQelIInSMP8e/JWUzMv/G4zqQzODogn7H/Q4B/8berQ8/b8+ftayQszii8ePrb/9Z6kd1tAL8wP0E997o9MEuhTsBRlWARmsd2W3qbiy5dyyfzQngQyORzYm/mhiwTQyWH3N323ruqtbpNAL82/J9aTgK4eOli9vlW4vX9cUEHPlVPqbrItJFN6Y/49SScJeAlh/0MGV/71+KHLuvz93l74/IzCi0vGDtxrEgjQ/NCRBGZv0uODGKxHeH0X4cwfG0S4MJfND/tOAl5CGHXw3s0P+3go6PMzCi8uGTfwu+9tAu0TfoGZv5N+eNxnrQmIuiv+YoIol8q82grbOjJlXlIPaoMnCcD8nQws7MP4o9/fBLyEMOqgQd/52+S9mx/SeCz48ycXXjJ87MDvdDaBTvMPGRGo+Tux1wTU+xWw03hdR0aocq3Mr43dGoddXeQTFIOK3t0E3jH/lGFf2ddr034AyKH3N3278fW3Lzno08PDMv+e7FRl1rqR8ljYhfZE7yn5uPreJaBjyOC9iTgfAgbaFhEEKtyQOKX2Its6MqW7i3yCZHtjM+v/UE/puAFpmR8y/JJPfqnl9AFD8n8K5PdIYWbsUmWm6SaQTejqkmIVqQIG2NbSWxS9xTul7vMipH9+OgKYMn8Hqdad/pcfPDDx43RfkNEVBY8dUnC7wEIw8hjl/US4b1aNTjZQKyvxRVaQFebndu/FurPjZv6Zb+hhCr8zZX4VPpuJ+aGHMXdurZ7kK/cAXV7wHzAuCfQAXV1copK3AehnW0uvUO6R4tqFMpE221IyYeYbepiX4HGgyEC5lAqfXVcqt2f6wh5dU3hvqTzoCfOAwG8j7oL9RLhvTo1OMVAra/AlbwVxNz+sk621i+Jm/jmb9PA4mB96OdFlOAk0e8K8e0vlQQO1Yo3eU1SqqfwNwH62tfSCR2VHn5ly1sbdtoVkwpxNerh6PIYh8wNnrS2TO3o6QK9uLTKcBPr4yj1za/UkA7Vijd9WcBnxNv/vZbc/x5m/W3ptfgjoVNesWp0uyr0YSgLiccqaEnnAQK3Yob8o218T+gpmPosQkD9Jn5apMqvxLdtKMiGO5odeJoBO1pXKQyrMxVASUJ9fz6nTkw3Uih2+p5cSW/PzT8E7KW7mn71JP2rY/GcGYX4I+GKX2bV6IsoazHwBW8RjnksC/0XvKT1AU/wHKLCtpQe8IG0yUU5Nhv2I+kCZvUk/Srv5Q1/qm/+a/86gBgz0QWNrS+U3CHMwkwQK1OeeWTU6w0CtWOCnuJx4mv8VSbROdebvlsDNDyFd7jq7Vk9U5V6B0K8ZBlpUOWXdSLnfQK3Ior8oGa2evEz8GsDrkscxMq/2NdtCMiEbzA8BJ4BO1pbKb0SYq2BiFrdAhF/nehLwxbuS+Jl/k+T5E535uyUlcEYY5oeQb3iZk9QTfFjjkkC46OpRB6qm1gMmFngNinpRjpOFtettC8mEmTV6hCc8ikHzrymTu8IqEEoC6GRNmfzWgzkmk8DMGp1poFak8P3UFcTL/NvElxOc+bsldPODoVteTScBX5l/30i5z0At6+ivR31QU6mXiE0DkDfF18myqPY520oywbT5FU5fVyarwi4UagLoxHQS8IS7cyUJ+K2pq1HyIvCAznS2neLrjJia39gxvynzg+GHXrgkECy6uuQQ9eVfGGrkvWSXiJ4kC+qetC0kE/Ywv4nnRRo1Pxj+4qwpk98Cs00mgTk1OstALSv4Ke9K4mH+FlGdHzfzz03qBJPmR1li0vxg6bFXs5I6DVhrKgmIUr5mpKwzUMsYuqpkvHryPNFvAClBF8nCurttC8mEuUmd4MOjGDT/2pHyCwO13oWVL8+6MnlYYJapJKDC6mxLAuolvg7iRWBBzu62lIgscebvlpQoi22YHyw/+HJ2UqcqrDOVBIAFa8tkrYFaoaKrR31Eff8fRHvvryL6RVlQ+xPbQjLBsPlbBRauKZN7DdTqEqtfoLVl8ojALGCXgXIFwK9mJ3W2gVqhoin/GhQvArP63SzZxXlxM//spB5p0vwKC2yaHyLy6OvZSZ0KrMXMQyxagfK4JgH9ZdkEVZ4jIp9dV4jyVTk1+W3bOjJhdlKPpN38Qw2Ua1VYsK5M1hio1S2RiJBry+QRUWNJIB9YHdckoMrVRNn8Ipc583dLK1AeBfNDxL5Ic2p0igrrMJQEotKF00XvKj1SPXmWiH1unajqDYlT47Vwhw3zRyl9RiIBdLJmpDxqMgkI/GpWUucYqBUI6sm1RNX8cGPczD9nk36K9oU6TZi/hYiZHyL6ZZqZ1GM8eAjob6Cc9ZnYdNBVIz+l6B9s6+gKhVu8RclYrdozZ5N+Sj1+CwwyUC6yZ6AilQA6ua9MfufDdGCHgXL5Cqvn1OhCA7V6jKJX29bQFapyh/efZKxW7XHm/y+RTACddCSBBzGzvJW1q7H2hd5Z9hn1eMa2jvchcq+U1CyI08Ids2r00yL8BkPmj/pVqJFMAJ10JIGTgLcNlEsg3DG7RhcZqJUR6nGNbQ1d8FsZvN+pzvx7JfLmh4g3AGhvAtp+OJCTTUBXlR0FTLSt4z08Js0Fc2T6qyYe/hoIHeY3Fvt9ZX7UzQ8xaAAA68rk/5tuArOSeqqBWvtEkWtta3gPf5C81lit2rOH+QcaKBer29AjPQfwXmYl9WhpPztgZE7A9L3Z70XvHHm8ikZnVWTlz9LcMkU+F5+FO+bW6Gf89tjvzN8FsUgAnZhOAgK3z0nqaQZqdYmKXmGr9vsQ/ikF3nRn/r0SO/NDzBoAtDcBgRMx1AQUbrPRBPSu0mnAMabr7oWXhbZpUr5pi20h6WLa/KqcEjfzQwwbAMCaMnkm25uAIleZrNcNr4qfP1FOrd9sW0i62DB/XB9HH8sGAO9qAiYiaULhttlJXWygFnrXqOnAJ03U2gevi+dPkSWv1doWki5zknqUM3/6xLYBwDtNYDqGmgDwcxNNQEldGXaNfSLUCKmJsqhuo20p6TInqUdp+ySxM3+axLoBQHsT8NRcEiDkJqB3lM0E+URY46dJg/j+VDltc5VlHWnTYX6358+Q2DcAgHtHyu+zoQmoIurJZUGPmyHbxGOaLK57ybKOtNnD/CZODzeLx7xsMD/E7DqAfWH4OoE2gYlryiSwa/T1ztI5KlbvStwu6k+WxXXPWtSQETNqdXxC+RMGPvOOh9jOXlcmD4ddyxRZkQA6MXydQJ4qXw1qsI69v81j/52CzoiT+QES7Z+BiYa/S2BWNpkfsqwBgOHrBITDAxvrrpHz8Dnc0kM8dwlyspxW+7vA/j3mONJAjV3A7LVl8oiBWkbJugYA7RODqkwj5DkBVWoCGecqPFW9PIixekCLqMyX02pitWpPJwKNIZdo9oT52Wh+yNIGALBupPwh7FOEnhDMghcfLCtHOCyQsTIjJSpLZEnNgxZqB0WYd9ztEmXGvaUS5/enW7K2AUDopwjvziulsreD6GoSqti45j8lcLosqVltoXZg5JVSiRDGjPwuVWauGSmPhjB2ZMjqBgDtpwhVOQHYHtSYAr/eVsqpd4ukej1Ya+lC4ODeq8oIFfQcWZy0dqdjUNwtksrfwikiBHkd/i5VZq4bKdG5EzMksr4BQMfhgB9YE7inuJRTnxLp9ZNw2vf+xs/7q8B5sjheq/Z0x93jpSVvC/MDagI7c8X8kCMNAGDNKPljAE3gnuGlLPqxSGsgolpGLgYOCmSsNBFhhSxO/tBkTRME1AR24ueO+SHLLgRKh14sBBGo+XU1CW0tewnlQ0GMlw6icoUsqYni8wUDY/6LWtA2jLtVmZnhS3fiM3PtKHk8FGERJWcSQCdry+SvwBRgawYvuzfQPT9AS9kZJs2vqiuz3fzw3ySQ4cRgTpofcjABdJJBErh3eCkLgzS/3nxkvvav+zfo2KDG7LYefC+xOHmBiVpRYf6LWtA6jF+jzNjHn+4UjxlrSuQJI8IiRs4lgE7STAKBmx+A/skzjZlfuNU7LbnURK0ocfd4acnfwin7SAI5bX7I4QYA7U1APU6k6yZwTxjm15uPzFdkRZD810oNAAAEzUlEQVRj7rUWcqf3SryW7AqSu8dLy5DdlNN+p+B7eRvhpFw2P+TwIcCezNusY1MpLgY+BjQK3Hd4KT++SsQPupbeNfIcVTUxC79GRibL47RwR1gcp5o3tI7l2n44UAj8VeC6NWWy3rY227gGYBBdPb5AW7b+Bzgg5FIPy7B+s+K0cIfDDjl9CGCc5q1fIHzzPyatBbOd+R3p4BKAIfTW0X01v+UVYFSIZf4gBa3TpLzBxPMQHFlAnm0BOUN+85dQCdP8f5aWlhNkcaMzvyNtXAIwgN46uq/mtWwAykIq8bz08SbGaeEORzRwCcAE+a3noqGZ/2VJtE2V8npnfkfGuAQQMnr7iP4qiQ3AiBCGf1XyEsfKojeSIYztyAHcWYDQSZxLGOZX3pA2f4ozv6M3uAQQIh17/ypgeMBDbxY4VpYkXw54XEeO4eYAwkS8pQRv/gYRf5IsrnPmd/QalwBCQlcXD9Dm/CqgOMBhtwkcL0uSfwtwTEcO4xJAWDQXLAcN0vzbRfypsrjOmd8RGC4BhICuHjtYdzdXIQwLaMid4nknymlvxHHhDkeEcWcBQsBvblkeoPmbBZnnzO8IA5cAAkZvHT1E81qrgSEBDNciwjxZXPNAAGM5HO/DJYCA8fNbLyIY86cEljjzO8LEJYAA0dtGFqonVaCDejmUL8jpsmTTXYEIczj2gksAAeKLXhyA+VWQc5z5HSZwCSAgdFVZkaakChjYm3FEuFgW11wfkCyHo1tcAggIP+V9hV6bX1Y48ztM4hJAAOgtJcWal6gCBvR0DBG9SpYkrw5QlsOxT1wCCAA/L7GCXphfocKZ32EDlwB6id46ukQTrRuAfj16vcr3E2dsOj9gWQ5HWrgE0Ev8RMsKemp++LlXvSnnVu1xRAeXAHqB3nFAqWrbBmC/Hrz8bulbs0jKSQWty+FIF3c3YC/wNXWp9MT8omtkVPJUmejM77CLOwToIXpL2f6Cfj7jF4o8Ilv7LXJLdjmigGsAPcTPl0uBPhm9SHlc2vJmyQVu1R5HNHBzAD1Aby/7gCKvAAUZvOyP0rdlqlu1xxElXALoAb5yOZmZ/++SSJzkzO+IGi4BZIjeWjJaE4mXSb8BPC/KJDmjpilMXQ5HT3AJIEP8ROJK0jf/fySVP82Z3xFVXALIAL1j1IGqup70Tp9ukHzvGLdwhyPKuOsAMsBXvULSe8/eENqmyKLNzvyOSOMSQJroXaM+qCl9iX03gM2S0uPkrOS/TehyOHqDmwNIEz/lX8W+zd8gfuJ4Z35HXHAJIA30zpJDNJX4F903zG3iqVu1xxErXAJIAz+VuJJu3yvZLsg0Z35H3HAJYB/ozz8wXiX1PHtvADtFZLqcvulpk7ocjiBwCWAfqJe6mr2/Ty2CnOLM74grLgF0g942aqSir9N1A2gRZa6cWfOgaV0OR1C4BNAt/iy6fo9Sgp7uzO+IO64BdIPizerix62icoackfyVcUEOR8C4KwG7RT/17v+Vl4TU6XJm7V8tCXI4AsUlgG4R7fjvdhEuk+19JzjzO7IJlwC6QVRm4OkBeDvXyeIt223rcTgcDofD4XA4HA6Hw+FwOBwOh8PhcDgcDofD4XA4HA6Hw+FwOBwOh8PhcDgcDofD4XDkGv8HU2NHPZhEUIgAAAAASUVORK5CYII=;" parent="1" vertex="1">
                    <mxGeometry x="260" y="190.26" width="64" height="64" as="geometry"/>
                </mxCell>
                <mxCell id="16" value="App Log" style="edgeStyle=none;html=1;" parent="1" source="7" target="8" edge="1">
                    <mxGeometry relative="1" as="geometry"/>
                </mxCell>
                <mxCell id="7" value="Application&#10;Insights" style="shape=image;verticalLabelPosition=bottom;labelBackgroundColor=default;verticalAlign=top;aspect=fixed;imageAspect=0;image=data:image/png,iVBORw0KGgoAAAANSUhEUgAAAQAAAAEACAYAAABccqhmAAAACXBIWXMAANH5AADR+QGceVN3AAAAGXRFWHRTb2Z0d2FyZQB3d3cuaW5rc2NhcGUub3Jnm+48GgAAIABJREFUeJztvXmcJUWVL/49eW9V9QpNsyOKgM0qNN3wRkdxwe3JuOAs7YI/fSCKM87zzT5vfJ/xvfYnLqOOjjo6IyOIsg7tU9EZcRwXBHGZgWYbQDYFdJBuWZpuurqr7r153h+ZEXFOLHnzVlVX1a3Kb32yKjIyIjIyIr7nnDgRmQU0aNCgQYMGDRo0aNCgQYMGDRo0aNCgQYMGDRo0aNBggYHmugINZg7nbLh9NSY6hzHh6SA+DJwdAubVIKwG02oQrwCwHIzRaAGESQA7GdhBwONgPAaix0D5QwTcj5wewNjIAxdsOv6xWX2wBnsMjQAYQpz1wp8taa/cflLe4hPBOJGAExk4AcCqWarCNoBvBeg2EG5lpltWTC67+ZNXr5mYpfs3mCE0AmAIcNZrblqV5dnzCfxcJjwXwCkAxua6Xh4mANxAjOtB9P0e5ddd9JV12+a6Ug2q0QiAeYq3/PatR1CHX8WEVwL8fCBhts9f9ADcDOJ/ytD62me/csJmgHiuK9VAoxEA8whnnXHrCRl6rwfoDQAOn+v6zCgYPwXxFZRll1/w5bX/MdfVaVCgEQBzjLe++rYDc+qdDeCNAJ451/WZJdxGwKWTGX3u4i+v3TrXlVnMaATAHOGtr7n15DzPzwXhzQCWzHV95giTILoK3Dv/wqvWfbuZIsw+GgEwizj33BtGultG3gDwn2EPaHtSAZqxzmXzm+X5jOM/APpw+8DO5eeff0pnz9yigY9GAMwC3nn6PWM7R8dfB/C7ATxjuuWR+OV3oLvmxQ3c1RwSnUPyS+EwQ4LhAWL6WIs7/3D+104Zn5kiG6TQCIA9iA0bbh9d2em8HYy/BHDAVMspSK3JLonui4GYEFDXKpAkcZT8HL3GAMARATIYthDjvO1jI+dv2nT85PSKapBCIwD2CJjOefXNv8NE78cUNL4hsCQ2RciuhYCKrRQCA0MRnMVv/5oTCsxe3BQtBAY9SMTv2zFy9wWbNr22N4UiGlSgEQAzjLPPuOVZBP4UgJMHyeeTPnXu/pS/ySvDK5Wm2cMFkTV1ObhexMaEgk/+qQsDuiHP83dc9LV1/z5w1gZJNAJghvB7r7h1n4l2vhHA7wNo1c1HVaT3CB8neyo+vE91CoNQg4dXIdJwMp7VeVwYpO5TUblL2nn3j8//2imPDJSzQRSNAJgBnPOam9/EjI8C2K9Oejmnj5HeEt4m7iMEvOmCuhaJTHU6B4HINXseXxXwye+SFXExYTCwz4DxK4D/6MKvrru0bpYGcTQCYBo4e8Pm/dHJ/p4Yv1UnPQVEj5DeIylR6MOPxYHkeR+/f18JkIoW2p7D68x+ShenrYFQGMTCNfDP7Vb3bed/6ZRf1s7RQKERAFPEOa+56TXM9BnU8O5TRNvHwy49UHVuS64QAok0AyA07lPk19OGNPm1ACm0PyfCWqBUYAvn/PbPfW3dVXWfq4FDIwAGxMYXfrf94N77nAfgf/ZLGyW+p+2jJJeCAXHC66mANhuSfoBkTNrJF42XZryJUuQPBUIw/xfCwLcKpiQIGOfvGBt5Z7NkOBgaATAAzj7jtqcCvSsJeHZVOkl8S+yS7FSqaT8s85n0ccKHFkN5qiJnumM1+fV8XWr0uDXAWhgElgAHYZu+9A3UFAQ3Zjlt+OzX1v5s4AdcpGgEQE2cdcZNv5GBLgawOpXGzOsJgsAx4gttr8NAjOCBoIBL4HegPyXo6w9IQM3mI/N9de57/W220OQ3wkBaAkE4EAQuT38fAT3K4Dd+7qqT/qX2wy5iNAKgBt7ympvPBeNTANqx64bIMVPfJ3ug7VPWQOAQjAkBWJLHOnLmnYB+XLgSEBUIUWHASjDoKUEoFIKpQfWqQY9Bf/y5q9Z+Ip2kAdAIgEps2HBla+XkUR8D8M5UGmvu+8T3NL6v4cOwPz0oLoSET+z/F4F+On9A/turoQ8gkt93/JVxDE1+kzS0CoS2T1gE7KWpqPL5T9v++O9vvOa0buWjLWI0AiCBN73sluUjS/JNIDo9dl0TPmH2J4if8gNESe/7AuACPtGDzpymP8AnfPzUkVRekxZCP2GgwhWCIDUdqJoWEOjrrbyzoXmxKI5GAERw7oYb9u5Otv8ZwHP9a5KkgRDwiG+nA4gTX2p+Ze6TpLyMs2fBXN8XA5UdOwUTgL0Q60h1Xc/5Raya+/uWQFwQxMx+bQUIoZGaFjC+3x7rvvL8Tac8kX7CxYlGAHg4Z8Ptq3myczWAX/Ov9SN8yuxPEj/Q9qH2TwsCQF+FvZDq1Lo7AlKz65hFwP7vfsQHFFHV/L9KEESnA2mBEHn4zTySv/xzm9b/qlYjLBI0AkDg3N+64eBub+TbAB/rX4vP9WPmfjXxlQUBKJJHz20c4FPYf9EnIDhNv4N9TV+cepOAiECITwt8YSC0e1mQInSZOSYI+lkDCd/AHXln5MUXff34hwdviYWJRgCUOOs1N61qMX2XgZNkfEDuWoSPOwY18dPa3jf5bTrRW4rsEaJXeAYGnAJw9FI4BRCTAEX8cEpQZRVEBUEwHegjELw4D7d1s4nTvvDlZz2aaIVFhUYAAHjj6T/aa2xsybfA+C8yXpO+vtaXfyGvFycuXF4D6pA+JQh0KPX676AdnXIHyNd//XT9dgNGhYFc/iszmHAwNZiKNRARAgTc3CM+rfm/BY0AwIYNP1i6cnLpNwB6voz3SZ1JcicIb8194ROob/aLOJ/0QsPLyUE4BdBn0/0WgIH/TYDAGhBCQWv1lDCotgpS04HADxATCGVc3m9KwPS9HWM7T9+06Tm7ptwwCwDZXFdgbsG0cmLpBTHyZwAyImSG/OSTnwJtX6R1eYv0nsAw+QBbbgYS5ZvyzH2LTqKybJMus0KjrKe9VtZBXJdHVt43ekTSk03vl0/qunm2rHy+rHxe23bQ7ZHJZ4R7ZmVdmef3+iO0tLwpWlmu7A9jablO5hesnFx28caNvKg5EN3Ztlhwzqtv+SATvUHGZf5gSpn8/aYD0OZ9vy2/vva3U4GIuS8Hs6/kTdkqrm6DkE4bms7aw05ENg1BaFnxfMxlvrK9inOAzRfA2VhOpuzimYuyRNg+M5u7iScrwyZdJH3GDCZCri2B337g5pvPA/C/6jbRQsMMGYnDh3NeffNbmHCBOY8T22l2rZ2r/kKZ+5Ls9YhP9pqplxQEssMk2WMdGU4B6na3pn7MoS4nBOEqgJs2hFOCftOBxGagMlNyrh/M/YE8eU37BQj43QuuOukzNRtnQWFRCoCzzrjleRn42wBGgDT5nfka+5vW+o7gqbAmeorkdT8GQvpXslMpCHhQDrvkZRi2cuTawB8FscVpQaB9AiLsOQn13D/mGPT9AVEhMEnML7rgq+uuTzz6gsWiEwBv+s1bDhjJeTOApwBx8juNHyG/vA5J+JTp75Pdafw48fsLAkn4uCCQcdPr4sCHHiW+Fgh1iO+fxy0CaQ1o8iMgutD4ESEQtQi0EHg474ysW2x7BBaVA2TjRs7azJcgQX7n7NKkN/HGsRR1PkFbBYHzCy6cyfylIDBOtiw4l+UJZxyco82PL64RtCNSH74DMJ2udLzZ+utyjYNSxlc/g3AgijaydRDt5Mr1+8oXzk4wy74KBLctS/dxiYOy0c6lGzZcWfuDrgsBi8oJ+MDNt7yHGC8F4uT3CZ2RHIjhwHED1sy3xQD1tL6c40sNH/v8l6/p5TBVvgIvnTpPhvwTERWZyxcXGeTFEZcOwPIZrS5lZ+EwGFRqcOswtI7C4gnYeAVBZcLyXkyAchS6MFHpdyBZqzJs0jIhIwajdPwRWedgBkZuyyRrTYDxopWdNe8GsDFsoYWJ6dmHQ4Szz7jpOQS6FkCrL/kDTa+FAiDSy7ARAnDCwQkBTXYVLgoUQsCV485djCQ8+b+9Hp1uBwf+ADUFECa0mgL4jr4yVp5Lcx7aHNemvj8ViMz34aYbeeAX4OT0QPkG3P3zHPTCi65ae92UGmzIsCgEwJtedsvykWV8Exhr+pFfmYiC/GYtWZHXswBiWt9QMx72ND6FJK8ifRhnIOyDAQVCjPDuT+jggyRmEKcdeOZcCoKqbwPKcMo3oMqT5DbnngMwryMEGD9dMjay9tObjn+yT3MNPRbFFKC9lP8ajDXA4ORX+wLUXwAyLdJCoEjpkz1BfF/bJ0gviUwiIkbwYCKQkgLGGpd09+5vDe6SOG4KQNbcV//lm03dpAnvBIOcGhTxxlQv78qmvLJ8Yl2mPyUwZr5Z949MC3KIdN50oJySHLF7svN+AP8j0VILBgveAnjLGZtfAmTfBED+Jp+sFvlTjidYDS3JH9P0vunfj/ia5CHpU4S3d+nD80HBKqDXBbTWZ5lMWwZCYwNyehBaBMFUIGYNyPL8KYG3XyDvYwnY6+IcAGfEL/rsV9ZdM/0WnL9Y0AJgw4bbR1dOdm4FcLQy4ylc6tMOP18gxC2AlMkfI7zvH9DhBPF97e8Ru0hPKg5AeJ6aDySh7H4/qM8lYV0UpKBQ5xFB4M/tY/N8ICR2dEqQFAImrvQJpJYIxfQBwN3LJ5ef+Mmr10zUbLihw4JeBtxrovPnAI5WJJbETnj79VJRmvxSYKgw5LKcyafDmShH7jT098iH58ZiEeWbw9TVPyDuX+swlk/s8NKKuph3CdQ7Dv65fE7T3tBtp8JE3jRM9p3Xn6qPRP/BW2akii3fSmDjqJ2jO/9oT43P+YAFawGc+6obntbN2ncQsNwSyJDPI3UWDAw9eKrJX9wvNggRyQfoco3Gl9YE/DLKTLKzSP9KWwDT7eHQGPDOtZPPXvMsg+r/BeBPBbRGl2VIrQ4RDqYGdoXAaPZwOpB2CKpr41lOz1yo/2tgwToBO632x4gL8jvC+VI+Rn4MRH5JzkADlXXR+QHIvCpcTXxJ+ijhScfMiHSn0g+XnA+IyktJYCRjSWC1D8BU1jr44Jx5ZRiE0jEo85GXvwwLJ5/YeFDem8Q9ij42jkHfIUhlfFHf8qmZl+VZ/iEAG6bdlvMQC9ICOOc1N/8aM36UEZE2AT0LgLQvwF/qq0N+R9iYGVql9auI71kDZQFxC8DmCECxyCmAORInftexAIzWN+f+8p9y5lVYAya9Ka3Op8H8v3KJUM39fQtA+AuQ5c+58Mvrfzj91pxfWJAWADM+WPI7ovVdeKbIn3L6pQgvCZ4Ou1+K+AnSx8g+QzYA1LKeAdsKlgrbmeRGYJmERjlbrQ+jzU0Yxc5Cf+efuYev1ZUFUNMSEH8zZuREABgZlxaBtQDgWQPl8mROHwTwgplp0PmDBWcBnHPGLa8C+KvOOaUtALkPP27+D05+R9hEXiCi9aVAcHnLICR9+wuDCNmFBTFdsP0l44QXIJgdaL+AiZPLfcZCCDV63BqQWlznnZolEPcFuLBvATAzwHT6BV9d+42ZaNP5ggW2CsDE4Pdob7VnAdjzmHUwRfJHy9D3kh7wsaUZliwT9w58CPLciyPo+psf8q/Jw/uhxBH8wKtHjXvbNiavHpHnNJYYAaNjhNGxsK2S7V7VF7X6zEsjhLX2G7k+YMJ79+jwnQMsKAvgLa+59XQCf90tlTnyhBZAuFQnl+YGIr/Rv35cBux/aAuHHTuKAw5rYZ+DWli+KpPWMXY+wXhiaw9bH+hhy709bL2/Z7xuSqubPLE4e25+kzyfPlgF9EYgwLcAOB4nLILl+xAOPaaNAw5vYfUhLaxYTWi1i9r2uowdj+Z49KEcD93XwYN3drDjsVxpc2cB9F//j/3NvfQxayC2IlDk6730wqvWf2uGmnbOsaB8AMS9vyDKkhI8tAg0mc2vgbQIfCEAjC3JcNxzxnDcc8aw174VRhYBy1cRlq9q45Cj2sBLgZ1P5PjpjV3c9YMOJnawIHNJb1LZIdnuEz4QAL7ESCHm9bMFlmVIqSCLZVMfae8TqAUcdmIbRz17BAccnn7jttUmrDqwhVUHtnDkuhGAgf+8t4M7rp/EfbdOgHOAiYqCxWoBiPr6BMwbhiR9A2X/mvLI9weAQHYrMoMpexeABSMAFowFcPYZtzyrRfiRMyH1er9+315YAIiYg+b6gORvtQknvmAJ1r14CcaWTa9pux3G3T/s4j++NYnupE98qiY8kT6fJhzXWZ/L62burpOCwTj0uDZOevko9j5gejPORx/q4UdfG8eDd3ZqWADOEuj3abC4BeDtD2C25eTUWzArAgvGAsiI/8yfkxq9GfMJBE4/kLoulV2c9Jr8+z2ljReduQz7PmVmmrQ9Qjju+SN4+toWfvzFSWy5twdEiG+mHqK6+lr0JBYRePlC+BZESRJpPUnP/uhSwilnjOGwtTPTJvse0sIr3r4Sd98wiWu/uBOTuwHn7Ufg9TffGiB73SYq61iklXsDyKxKgMrnMxYAQGX+jLM/BLAgBMCCsADO/a0bDs7zkQcywkg455cWgJ73h57/mOnvpgxRHwGANevH8MLXL0d7dM88H+fA7d/u4PbvdgCkSU8qYmasAPZDrGWDtA5k/F4HZnjem8awYvWeGWLbtvZw9WefxONbe+k5foUfIFgRgPYH5Mo6CHwCnTzvPf3Cr65/aI883CxiQawC9Lj9NiKMOI0vNbuwAFRcmdnX5qm/9m7aYnjmqUvwkjdNjfyFGdr/AAHHv2QEJ796FFlG+jnk81q/Ruz6FA5ZhrWuCNqikm1c3Hf1oRle9LYxLN+Haj/joMfe+7dwxjv3wn5PaYv+cb8r+zKw8PznSIwf0/+EEVDrrMF7fP5h6L9/tmHDla0lvf0uyohWSdPen/MrCwCyU/35fn3n3zHPGsMLNiyfNTtq9aEZRpdm2HJPL0L6FNmlUBjwp2wAXygAENdJxa86qIXT3roUo0v6le4LmMGPkVHCkSeN4me3dbB7vLQ/jGQXAt5KefGX/XiZF6TzGujra4484UWfvOOOTQmP6XBg6C2AvXprXk6Ew6RWju8DKOJhrsv0diAIbdCH/E9ZM4IXbFgW0ZR79ljz6y0c+Wyn9STpESN7IBAGPHzakijT1quIWLKCcOqbRzEyVrjoqo+ZwZJlhFecuxJjSynZV7JPi07WfW/SwuRRzy4FqYp72l7do186Yw8yRxh6AUB5dqYhMJUSOyB+ye5wEEQGMlASKT2QxpYRXnzmcrRaQjvMIk58eRurDqEI6WMEDklc/6e6PF8YrH/1KJbtPfttsvd+GV70hhUe2XXfmY4PBCcQCH+bzhMEgGlzG6f+q9QwYm5G8Azh3FfdsIzbI1sy0Aq57GfN/bLD1Pvq3hQgbfqH75Cbvy987XIc++yxgera7TB+dX+Ox3/ZQ3eyMJX3PyzD0pVT64InHmZ89+8nwbkQaoAdqObPdDuY7a8ioByA4uQpJxB+bcNgjpDx7TkeuKWHX9zRw5OP5hh/MsfIKGHZKsIhR7fw9JNGsPrg+jrq6gt34Ge3dUKnYIUzMPqxUPOXdRrlECyWBXesaO888GND/A9Gh3oZkFvtVxJohZ7vCi3lxQWa3TJETBl8c9GzKPY7pI2jn1Wf/Lt3Mm77ziR+trmLzm629yR00MqAg49p4/jTRrD6KYMZY3sfRDhsfQsP3NgTlktIeIqdpaQCBwEvPenL5fJYq0145stGate912Xc8b0O7rquh+5kbicFxITOBGPbw4xtD+e4/dpJPP3ENk5+xRiW7dW/fX79Vcvw4J3b0esWlTQfMycyN3B/3aagMpKoWMkgApWSjcqMJo0bQ3ZZcOWOyeWvAPDF2g8/zzDcU4CMXivNfgDOcQU9v3NCwKSTpr/LmzIfTXnrX7oUWU21+sBtXXztr8dx9/UdS35pRjMTHrqzh2///W7cfHUHeT7Y4x/9/BayVmxObiwc/4ikU3mEIPWPVDoQnrqWapv+nQng2osmced3uuh12JbhhK9oIybcf0sXX//bXXj84V7fslft38IzThqNC3vxF5HnNpGq/SDMf9J5rdLI8LpaDz5PMbQC4Nxzbxghppe4ARlqfzNXAyIdGjH5YeJlemckYPnehMNPqGc03f2jDr5/2W5MjLuNJWag6TAAJtxzfRc/umISvW59B9myVYSDj5YWSkhYgyTpE0eQT5Wt59FHPLtda+mu1wO+//kJPHJ/7oSrbWPSYdFWu7bn+OZnduHJx7nvPU54/hJHZBJ1d62t+jzwG0ESvVQmBO+ZlSB/2bnn3lDf/JlnGFoBQFtHnk/A3r72144qQWAgGBixOElMX0AcedIoiPqvbf/8zi7+7aoJuzU9Sf6SUCjv9cs7c9z8z52B1sMPXdsCxHOLx9KEDtV34hBtIvPLcstfRIS9DySs3F+mSOPO73Tw2M85+fy+EJBtNrmL8f0rdiHvIx/3P7SFVfu3AmvClauFunymVJwaS74VAOyVb209t1YDzEMMrQBgoldY6aw0XrX2hxoYJDsyMBOVZiDg8BP7O7l2jzN+9MUJO62sJL+5i6jrAzfmePju+nOB/Y8ktEY8wopA5Qah6FH+GHKaKVVEKBCAg46tt5Vk95OM+36Yh+0AQao+QuBXD/Twn3d2+97r8BNGVd8Cum9Vn4uxYMeGrBPc87s8RngVJ1nWOr1WI8xDDK0AIOB018llh8UktsgQaDOhEWJxUiO024T9Du0/2O/6wSQmdnIt8rv76EF/57e7tVfKW23CPoe4Svtkl+hPfiTyOKEA1c7A6qf5OeJ44MYceRdBe0hCyTaQYdc/hLt+MNn3Xgcd3raVl32Z6mf9rK4RVF5TK5LCoYxn/EatRpiHGEoB8NZX33YgCMcEUtkMFjWI0tq/TBBoBkCnIwL2ObiFdrt6sOcM3POjbnQeGyM/5Hxa3Gv7Fsa2nxsTov+x6tBWQPgksWuwv0oouLYsnm/VU7JadfzVT/PALDflVAkBeHm2PpCj10PlvfZ/atu7F9naq74WWr6uFSCtKLjxdvzZGzbvXzk45imGUgBQlp9qu5ScFHfd7CS3iQgGsuhMf2BQMDCAvfdt9SXPtl/mmBx3ulsJJVl+WQFTTznIzX1/9dMc/XfTFcfy1SzuF5Jd8aPfj0ibEgrmfHQpoV1r1x9j+y/N0ppPKNEWsu1V/7g+4y7wxJbqtlm2kjAyogVJvymA12T6uUk/t62fkFGj3fZzMIQYTgHQoue6DgSMJPYHTT/tX980JCyrsWHn0Z/3bHp/CuETU94jNlXY9lD91YAlK72yPbJL+vaRYV5aLRT8ZxlbWbuK6HX9dtd90K+dpCjo9ZsFELB8Lzddq9PP/a0A6Lbwxh9AQ+kIHMqNQBnj1KIjdOcAZqBSOIhEfmUdiI6OaQYzIFoj/QWAXOs3N+qn2WLkL8qq2xpF3Ug+cBCqj1geFsPcbP5hBloDvEqWZcUUCUzFFh0SYVN6+U8+ichuM+QybNKD2KarvJ95N9R+krh8t19u+gG5p3O3tG1g9wiV9aByRyCV5TDMuGEw+NT6rTF/MHQWQLHmSmuVlhcEKv5CkE9QTWoSaYLbsuLayA6IfuvcXRJ5tbnvyid7jxj5jbDoTfRf8zZH1na19ets7zuFw+ZXZZJtyyyr/7ovZa69A0uAXO2jwlN0iJ4UpNHKvHbwNL7ubyf6jXaXfSgViqq7VkDrN77wu0OnUIdOAGDL6DFEGAX0oLRzaTXPLrJU+QOqtL9JXHfQtUcrBrISPmnym/T9NJyPYLBHiOwux3+CdLIMTyjahhygfrG2kELA1s0nphScKLfx9gHnTprr/L7FJ55JPqO4aAVRWbFwCgAQYWzrPvutqd8i8wNDJwCyDCcC8DS/+xt0pAklBoFBVPuLuL7zTgBLlpMuQwojb8BXkV8+Ux2IQehNb+JkT5eTTmvbI2jbAetZIQTkNEaRrsxs8i3dq/+dC59DQviL7DHhbwUHInnls5jyywJ7VIzNYcLQCQDOshPksLSaH5I8YjIQ6bioGSiGQcwMHH+i/+ac/Z7eghq84ib+oJf3ipI/proroE32agL3PdCnLBq4esGz1WkPW2+bnzCyhLBinz43Z2B8O+sRoe7l7q+eSdTRDQEhGOy1clypcQIQ44RajTGPMHQCIAMfp6Wz6ExBIp/4VlhYrSO7VAsGNejKcrY/2l8ArFhN2Gv/skmV+eoNFl/jRcg/IL/ME0aJSroh7H0CQSUuxn0BYfn1KxcXcFHtr9pMpz30uFakwhrj2xncNe9geApACTjfEvSFvxQEom/IpZDjMGvhuDpNMZ8wdAIAwOH+nFT9tvG+9C/PAg0niS8GgBmYZabtW3N0dvefmB91atsjlxxu4v7ynuL61MivbJ4Icf0jFhPG2vwE3YaeIKhXQwRCwJ6R1zbeU8n6HPlr/d+7eeTnXXsvZdKTu2f1OPAEtldP6FgrMJn56X0rN88wdAKAgMOKv9L89wenSxwNJyW/TRpKfga23t+zgz/1c/i6NlYd3BIZE1oO4aCTdSy+XVjvB7IsOYj1ndyPIbR/eJSTZ7YNZTtyVnevUvQZraYXjRVaRy7xYWtb2PfQ/vfc+rNe0O++QHP3Cy1B1e+qPUVbq/awguLpGDIMlQD4/d+8c18AYksOuU6qMP81TaDJrjSb7HRPSBDw4G3d4ssxFQdlwLNeO4qRMU8YybpYpaQHna4l+t7LHS6TJJQlMAnh4FdIV84NatuGWozY9iVTx5rLgLLHlGAWdfQqZ8UQASv2ybD2N8bAoOqDgQdvLz+fLskdjIlwHIgaRsnu+ko+g+qzfc7dcMPeFS087zBUAqCX5U/zP+jgh4tzMdz6kV3QRRNfllf8fvD2LjoT3FfZrdiPcOqbxzCyFJbYvunvTFRd5yp+psEh8QXhJfcHOZRAiAgCIq7tWFSPHpDLJVDCoIxevk8LzztrFCNL+wvFLT/rYuc2bzxIsipB4/dBTCiI8SHTxcJEoO6Sp8d6aL5iqARAluNAoGhoJ5F1jyktFQubHFKQiAGqBYkjAgHoTjDuu6He+/qrDs3wgreOYd9LJZLgAAAgAElEQVSntVSJFLmP700zA4+56nD3Kkxsj/ix+9i4qslE5PlNG0QEQV0LIADJHgkFsnmiQ5/ZwgvfNoplq8r69ZG+d/+go/os2p+AUgZu3IjfUmipcDCSyrYx8XxA5GnnLYZq5xJTbzWVMktpqGDoxMLl70DCe+nJEEQmcAnvvK6DI04ZQbvG1uDlqwnPPWsED/+khwc353j0Z4xy/6h6BnUXMeK45m4gZoL591W6tlrz9YcQAlz8ErMLI2dK4lNxvfaGJYL5x5ymTPu/O4GChOVcIcsIBxyd4bD1GfY/Quoo9mWlqBjw2C8Zv7DfCyjqZ8sFgcubkctSOu/8MMFs9RUlqTCZ8iCeAUCLsLpui8wHDJUAAGhfqSl8DQ0V9sw9jwM6TLYgX+L72mnXdsad3+vghBePVJBKXzjomBYOOqaFXgfYsZWxe3ucrBIjS1Jlh1i2L3DsGVUcH3BbYR+Y0kaW1JIqAIATzsjAkc/5qBgqPnO2Yj8gaxshWK9CDODmqycKYeg9rxVcXE6Wyo+BGooHBDeywwqNUiDYeCe8iqjiejl2GgGwp0DIVkN0mouHIK02LaPhCu9/EBbqmVBoibuu6+CQo1tYfWjdGVRR56wN7H0IsPchmjih8a2y9UV7DNj/qPpknFHUrOMBR/kGeXWBda0fg3t/3LHe/+B/gCLU4IDR+CWFiew9k+mNXSAtFy8NCPsMVPE5xlD5AJBhhb8xJXoWtQgAf41dmt7S/E6Z/wZ5Dvzb/51Q7/5rhGtgBBQjM3IM8g3A+XPUXaGIHJU/nkzpM+cHA9seynHrNzuRfjBaoXo1QKX2pmfRsFIyIkwAMQ3wkvTcY7gEAJf/AFT0YLIjVdjvNijHnyS+LxQomht48jHGD/9xEr0O0oNTVR0wr7IOdhS3ThQ7h/BbKLU0F2maQQRNn/Tj2xnXX172g6hb2H9eXwrFELcC48pChpWSKcdQTjRUVvVQCYAWsW3cQGOX5zpMYTzcIIgKBy+tjJObVAjAow/k+MFlE+hO1td+dTRajC2OUlPDbFgFcbYO+ryRI4Gd2xjXXTSB3dvDz435DRVq8SKkx0IsLel8viXgjZeMMVSfCB8qacWMkUz0gt/RtaR3RNwnTbyoy1lnfuRnOa67qINnvXYUS/0tIJHBOz0NPlX6T//Og03JXWKqbMN4tjq3evwXOX68aRK7n2QU7ZLIZV37wrNPEKsPLmu1H0D+dhecL8A4CrkRAHsOFHyDRguBiKkvQimhEMQOwjMiPPFwjmsvmMAJLx/BwcfGjSpKngyC6ZB40Jvqew3C49i96nrz43cX8Tlw34+7+Mk13cH+k5Jlbigs6pDdhcuQIr96hqHi1FBVloDJ8i98mnsyIAhXr//HBYc7ImaGN8YnxoEbv9TBgWsyHHNaCyv2I6X91ECpyePp6PsQc+c9qH3nqDXn8Kv7ctz53R6e2JJrgWLYKbW5R/QYkdVaPzkhJcMxKRATD8664Im6jzsfMFQCAK18HCw2AkUQm+unr1fN73QG97KMLxx0+q335njkPsYBawhPW9/GvocRaEqelrkj7JRR10wY4NF6XeDhn+R4cHMPj/2nI376ToVq5kAgOANAmv+p/QAmV2pDkHdHKQrG6z/d3GO4BABoVw1lXMZRkC5ZaixcmSm8SHBCAgB+dQ/jkXu7GF0K7HdEhr0PIex1AGHJ3oTRZQTKIkPJkzwzJQKmakkMfP++Gaon+b0uoTOeY/xxYMdW4LEHczz2IBdOVhiBXbA3LKLKDwChufumDq5rMaCv+z4BZhqqfxU+dAIgNuc3wfrTgOTWG5FhANpEkxaRnV3Aw3cwHr6jfGEneAfB7T6U043l+wPr31SvDjf+PaEnDU9vn/10oKcu2qRecTBw/GvriYnvfzwH98rv55YFcFkSC0IX+wT8cISu/RgcTRzPpOb9dcx/n/XCJwA0AmCPgcBPSMKIPypVrbOU6T8IY2qZvGIiUpE8vMTlSOtfJ204zBz5TRlurDt2EMxKXwULqxVy8qL0rPdluWJsHwTmf8wvKL0EVe7CxLQi4+31KjM/MFQCgJm2KM4lRvggJn//XJH4IKous0NhEJ2+lGrGbp2PKL/4vaY27YncIkgbEwIAgFzfN+XJJ/KN6ASBohP3vrVKpK0za69xq6rr3oWMaUtFMfMOQyUAwNiitmoKTI308evkHbULGTitb5/o89jLM6CUETu9apn4Qeb9VL6aPEimcD5dR8sPUDFPfkhMZf5f57q0GXLKt9as6bzAUAmAvJVtyZLmXtVkoErn9ydPvxUAd9CAZn6ftN7374u4mnmneP/6OrOoTKw7ODipLyH6Tw/qSIPCpOg/M4i593RN4ndL12GksQD2HLJ2+2F03KbvqPncp4zpXu+HmGDoe59IomLrsGcRJMoqlryqa57yE4QF1VC4YhrQ76096UkPKtTH0o/VcjorIzOt+WNx3dHRobIAhupdgE9eumY7gMdUZMonIMJJv4Gch09FmiTTDiZGUtVLvlOQ66PfnWuR37tWqzkSbze6txzFecVz1gNFg4Nkk3EUuz7AmImXTVvLMTo0GCoLoADdB7D66MJ0tfasYMBKEhxxZqjIZP6pa1UG59PTylEMMuefIySmRHfPfk2mh6GyAArwfXN7/z0sbgQr+719l5dH7R14CQ1f20LwYZYBa70q6N9oT2CuVQHdM8cVGBhDJwAy8G0zUc5cD5V+YKBYYvMO3/wvpgBzoy6dx8Adqc91z2fMXO3ym2esqFnC0E0BmHDTTHSY2Rc2f8FIrALOHxBqvpE3v+35maodoXXjDBU1axg+AZDlmykP3gpeODCSiUofAIWXp142WxNfCkD20wxSXjS5vxuovNv8lgPTRa89NjF0FsDQTQE+fvkJWwD+qYyb3XE1xbsNmq2cXytTPzIlwCDvxEeqNJ22Y9Sb/vvLmbUKnnKNZgeRTYc3f+TitTtnrQIzhKGzAACAiK4BcERwwVdrZVgovmgaBooXOfxxOsg8QaWd+gTD5GQAnPvXEgNcEKzvY6jG8BO68mN3CuIYyL05gF3v942DlLFQG75VMXi2aF04npYT8al7E+PbA9Rq3mDoLAAAyIFrAGFdCvQbG3taR3Dk6FePmNVNdZ3rZjDX3JBjb5jy1FfUOVZhzvWR51wc/t6FdBGVbVSnLWcKA48dIUhy8DUzXqFZwFBaAO2Rzr9wZzSHEmBVWrf+tWhKRvlfYPpp9eIfTqSSDWIX5NAOtqra171PvScYIL6ClWZ6MCgqs3BhBcUEgz7i5kYYVXW3+tcYGB8f3/W9qqrPVwylBfCRi9duZeDf+qUbRKL74ajmma7p2SeR0pNeBfotsQ9SrZTQGJSvXK4CxA7OEWlA7xntnWtUunal3J+U9VDDoh/s1kzfPP9rpwzVl4AMhlIAAAAxrpLn/Tq1f6cPpPvqp+HwhEV8SrMyGHmvONg78h4rs5uks6NmrQcxrYPpQ6qQKiFVpZGVwq4xN+h/sU+aaltg0PHDwFdrVGZeYmgFQI9wBaJL5YF5Fj+TBIyEK2HSDPCp20GtkeIT1VA7/szBLObauf3GTlCnQTV6v3rFyo5pfucPEPGpMivvWcc6qJKkYcFRoRMR0vEiI6OJsYuX7vpyjbvPSwytAPibK469n4Dv2ohUh0a5kfSniwwD0Celxv0Qp1K4E3aBtDb1lwHZL2tmhEDfMhmI/bty5kIA6KVKVs+WrF+Uz1XmwyBPEs8kRXQ/73+oJPjKv7lo3bZBajOfMLQCAABy4gtS1zhGwGTaSHhA85NRDny4b9zFLN+Q9HFhlHOp3XMOPe2+RRCton7+QfgSpE9YOloYEZATWB3xNxbNPXzJFWsre3htG691xQN5KQYbE+nUhDw5BocBQy0AJre1vwTgkWqhndYl0lssJXvUIjQDEIgeUUQVT6xW5RURSeWXdsx39+rMrUNtGj57rM6VzxIpw4apFEJyOmIOZuRM9kgU55UZeZhE46b6Qa0AxNqG/XCVouCgnbzwXR++4rjvx2s4HBhqAfDJq9dMMNMVqqMSPcapcJDJxctBFZQfMqWipuIuHLvix5U/SvPLHYHmQGSzkF8YI6nBq2odyReta85xAeW/xJRoYz+iio7JnF6fyD5LP6NH7sT4iI0n25vMny23kA0thloAAEDO+KzPznj/paV5kGKQLvWdUDUGYWgQsJ8dQOlAY+f4C52CHJ0CJDV5v3XDRJpYeQwpmJyAyhNH2ES64mmLpEL4DvTegvlTLYg4+O2nsQVN8MjIF+pXYH5i6AXAR//x6FsAfAOoR3YO1b/SzKrrKweYHhL+oA0Hq7xXjBD6JEdJsF5x5D0X1kc4WMMa+hd8dV1tJaTiincVED/Yhe2GpgjhHbmriB4K01BEVTxrmUaWH9wLemz0EwrMuPAjFz9jqD7/FcPQCwAAQJa/B0DQscqjHmTiaMdG0wp5UO3kqxYYta0ALn75S2tqyc1YAXk5cKPPmKpnNaryGGFpyCLr1MsLQWWPcmtw4QR0byH6lU2RLV27sJ6yb2JFhEK+CMXup9OyzleEOy3whyoqOTRYEALgQ5ce96Mc+I457zeggsHgEdBEBVrdh2KsPA8HpbxnrGbhuCVrXvvr69IyMD4AM1CryB4+U/yoyqsEK1B4+3vkLJSERVD9rFoaVLZdqs1VXdPWghRAlUK/QmAz8IUPXnHs/eGdhw8LQgAAQCvL3xvtUJZjJtQeKsxu8CRViYIjcTjg4vpT38svStSvtADkSzb6S0CCYLJ0Tt99qnBt6WbkhqR5z/f+m3qZnYyFNZBim2yLOu0Wkrp//5jpRUxIBgJCtl+gJAAGeozeX1XcdKiwYATABy859hpiXJda1lEdLueF/mD0w54cCKYBwfjj4CymyaSQ0bcwAqjQqr0eo1cSqVceeU6VDjbznb5+Wr0KKi/rN/pk27h6lNOALpd1FrsA2Xy2IFZGODe3bRytlTjz0/uFc5hLk93FRJ8vCDMIuOzDlx03dN/+S2HBCAAAYKK/BIQmYTHkuLpjE9LeOyqoZMjsDcowi29aao1jruVwWh6eOS0Jl3smdkwQSK1X9zAP4RPDhrlYhfC3/saWA/OeblshfkU7iIYXkVFhW+GcTZr/7If9e+s62vqxqClhotfL3pO8+RBiQQmAv7rsqGs5py8CMbI7gtp4TqSxWjimE3Se+FJfTFOlrAAvdRlJTNqjLgjlrwTAaL+ExivuLQtB4mBB+sQcmKE1Z1mf5CqFFVD6QYNn9wRnyrLyBXKVKCj+CPO/jFfPFR0P8Wcnxsc+/I9r5vir1DOLBSUAAKDN2R8DGI8NLnOiye46XmkZ6PwAlCaKL/VxPJ2HcOBq/Vfky93aunwb0NP+7kUbdsTxOC7v4ogT+0mlhyW+pBMDnpWS3gcQ+uzYu0+inURbyjaWbR9P59/F9Ysfjo0JX0gD2DKG7ANBJYccC04AvO+KZ/wczH9TnIXSPhwAjj6mtwOhAD1YfFRaASnNJuboZhDL0pkpWGLrWZNfm96ynr4g8J/BJ7msbTRNgvgA3NIkAz2zKSly5KKOsq3d80vBGfH8i7aRQiz+FOEzqL5WQjnS1xwrDQDhXRuH7L/+1MGCEwAAMNbpfoCBhwA4DWFO4HWy1+Fu4JnBwTphktC6QGlp+7rGDXCtcWRRDI6a1Lk1q4XnXWwHjgkCc0hWpMgOkT5FfPV89psFuo7mMM7AlK/DCkJFTKh7prR/eqnQ9IG4q+oPXZwOiyd2t9s89ow1n8cCxIIUABs3Hf8kgf6nMvNk2CO3P+fUgiBGllD7RK2AiGbz76HGtPKIU7nZR75dB+tU86cAluT+MyidGQoFn+y+Cy1KfFtnRi7qFby70GPAHJFn1EJSxnFA+rBWsR6IC7XUPYpwtfnPjBw5/feNG8l762JhYEEKAAB4/6VrLgHwL/CJx95ggB7QysFlhskUrIDYYFWaTt5TZhcEKdbRc/TyHDnn+jVgoWVBwsYxBE0IrxidfLJHSeQRn8Eghlrrt8uUJs73U7B+VhaVVJoc8j4ur2zjfto/6vxTxE+PA1cMg5k+/YHL1/wQCxRD+VHQuiBuv52p+x8ErChIR6Dy457MDFDx/+FR/gaX/49DhMtsYdllPgNLrPKjoFSWzyYZw91bpC3uwWAi+zlwYg4+CmruYu4Y/LttuMFN4nlsfUmm64/QCx9qXvMqsCmTyNUuKIPZ1l4S2lke4i7sEdKbJoRVSwgvJSzCsM0nJLgSEsBDeSf7y7AlFg4WrAUAAO+77IgHkNP/7ifp3RDWVoDRIFoDaQ3ia3R/MIZ5XFrfHyC1I+UA9wiwB4By/l84BRk9+w6+90ziRz3nAEedssB6L4L5hmFuNi/ZVYAc5p+DyGdV836h0VWbqbYM0/qCArJ8QWXtY2CdT/Sne26AcnrHX2068gksYCxoAQAAo0c94+PE/MPaA8CNMWXaB9oF8EJxc9Tl8TReHyGQszD/5dJfxCmYu9slzOiQxCmk0lvCivaxbyx6by26OnJ5kNDKIfmjbSLSqz5Q/egaO+gfIa+FbK4gvlYABL7ifZetUR+eXYhY8AJg40bKCb23MzAJuA533Q3lCLKag73zMh3KQuRg1BozJDVEWpNI5wuFABNZB2Dso6C+tlaCSV732sMneJWAUKQP7lP89t9ONOmLeCqPkPy2FNMunkCMtrOsm2hD3c5p7V/d56otH8177T/EIsCCFwAA8N5Lj70NxO8OSZjQBnKwx+KgI5RmkqS2ZXiaTqSQGkgNZobbXhtoffN+QLkEJ3Sf0oKmflM8/GdmccZA6emXDkl27y74HwTxyK/aTJTqZCx79zRtHbG0wOEzy76r3d+27He8//IjtmARYFEIAAAYOXLNR5iKrwjHpwNpK8AOPJHOtyRgk0a0OdIDUaaX4dya/izm+0bL6g9wQm4XTggDMe77Isxna6eEA6Osj9yU5B1WcIl2D8gfEFHc258yRAWs+ev6zhTYT/vLPihuRxe9/5I1Vw7QXEONRSMANm6kfCTHm5nxuKV+hVbwTWszcGwi8Tc0UUMtpTSa0obeADRhomKffw/2ZaA8dw62nvQLuNsUxIwIA0tg/5mCI5JHkF62CdiY//qNQLVzkcXUQBHeJ39oMWlh6Yki2YmqL0KhW7ef85zuHwH/ARYRFo0AAICNl675BRP+QGqGAp5mMINJahAxzkLCQA1WV6qfdwAhkLMlUU/tAEQwJTDLb/7AV8JAkLDyx0vvk15wqHgbsMvgrq6P2wsgpym5aL/+5A+nSzK9aCdZN9VHXh/b9k5pf86J+OyFuN23CotKAADA+y5eczEzX+EGYfUUQJmTEIOuYirgm6u1hIActFymE/8aLO9x+a691LKFJcCcK7KYmsRIG1xIJEzld23DgPnsdy4OKwjIHnlP/OOQsl3qkN/cUGl8SXp2+WTfGGmsBLjMK/pc9M+Hz7tkzTVYZFjQG4FSaLdHfq/X6z6HGU9zm3SKa4X5XcQVG3rgNgLZa0UGs9kHzGCzg4i42IhThs1mn2Lgl2H2bkgoChb5cybk5RZaQvo/Dts6CyFly4PLxpF8dcAy5AsIZnA3V1ra/jW/7M4q0oJQhePkD6wvS2jz0Ag0uxLIVkBoCwFh3O3tdnvjVNpn2LHoLAAA2HjR4duY+BxWOiDUDDFrQFxSgwtqAFYPYIh7IZUHbD+31cuFOa2cglzuFnTr7JZ8pcp17/Z75nLlYaYDbMuxz2vuAYBBdnqS+3sAzDJgF1aQzST5ddsjyKOsAa9vVZ+DJ3rUOnPjRYfvTg6YBYxFKQAA4LwvHPUtAB8PtER5XZJZD0Y9wCSxEBnI6CcEInNeZpT77IG8a0hkzv2jnAKwV3d5yECtQ7dHtF3Y7EIksQLA7g3F8iWgXK5e1Hh+FY60mZoyeAJa9Y3667WLEBwMvOv9Xzji1toDZ4Fh0QoAANi2Cn+RI79VEzZuUgo+C6J6fxHRYDD5qs1fR1S21/OcFNnkxzchtgC7wW4OTVpX7/pHkI8dYaXQ6wmLpCd8AT0uDusLKKWKP2+XbRWEY+0WtJkWxCaj7LuUcxfM17aPfMbHkwNkEaBiZrk48O7/ds/xlNMNRFhCKDzq8m9GxbydkPob5jHXIcJmWm7yFafli0Mw03b3ik9rlLDsoNzN4WUeD7v/s1WM9IirgPxQvx5nHeDY5TKSRhlj+zvvvs6ncz75i8wSU2pxJDR/lPweobWQjmv/PEhr7/1EBjpx4xeOfLBPiyxoLGoLAADe+/k1t+fMG6VTyGpjpAeWHpChJo9ZAkE+oxUh8pc3zrlY7++Wy4Hqn214nwgzrwMH/6MP8pBpKg7742t/YQWUPznccp/712Dm5SBS3wuEeD5Hfq5sm2ryI5Iv/Isgrfmbv2Oxkx9oBAAAoP2MZ3yYwdeoqQBiA63fgKsWAiosScpysBfnYIg1f0P4Ys4v37VntcQmiK7I7pPYFw6R64bsSiiwSku5S6Mdk2bDkviMGYvVAitISkEr2tC0fH/y1xHIMK3ul/Wl937hqMtmdBANKRoBgGKXYKvVPZuB7YAcaKm/cpCaUWZHm9PqfYRAONC1NeB/VCPPuTBpWe+/NyS1QiUgeeQnqfkjVoAoE6LuxRuLxTo/yi3JUKsAYmVAPFf/dtBhNonLZpZtnhbA4V8AYMJDXeqcO/1RszDQCIASGy869n7i/A9DLRIfUIbstSwB9gc8ooNcWgN2e639uo7ZaEPludh6a7W8R9+oVh/skIR3gsM9V6Dxe2LnovwsOJMn4HyB6JGfE23ptXXZiDUEdiGXCXjrB75w7KN7YgwNIxa9E9DHu990z5UE2hBz+GWIOfy04886AH0HIWCdfNIhCJu3iDQOwqzNGNnbnYPZliFBADrbMoBD96DYDzR1CMNGRAFgUAto7ZXreD99GTn5GAnBFwpBS2IUF7TFYMqtp/FzJAQz8d++9wtr3jnNFllQWJQ7AavQ6ubv6LVbp4JxMMpPeKnPhpXh4C/DbRu0f1GMxJK0xFzsGLTFyF2DZaT5cg4XWt5+ZIscOcoY91tYGY7w4j7TBIvfmuCFFWI+ZiZvVVTHfQ88t18EYnHd0/rlBZ/8Vmj45DeCxPsLcSchBO5r7Zp81/RbY2GhsQAi+Mv/ds/LKMc3iIgG0fomDjZOWgBi+c/T/nJxz1oALUJ7Re6t3hnLQm/z7e6gtAWgAsmIEhw9jVsAAGU5shUICKxERBnsbCd1boRKVBCwIHVUCAxqDXAX4FPfe/FRP048+KJF4wOI4LzPr/kmQJ+pN7eU82/f9BTxYO0L8HwESjOaOIZ95z8vPxMevBZsnIDyAPTB/hHJo+b2cPVX5ej0OVDO87nc+Wf+m5FYpWD5TEX7Kl8C3LMCri2S7SzS9yN/KTPAjPMa8sfRTAESaC1d9ie9XTtfBKajlCkf/AXMVKGIA6LTgFJ7M7N9fddMCWwSsHoxKDf/Uw/xDUAorxiNbvWunSbIZAMae6KM2CyCUSwD5nmur3umvklshKCcQsRMfnNrJwSkdRCzAPoK6Bu3Lnvi/YM9/OJBMwWowLvPvPdktPiHBBpJ7/qr2P2n/vo7/+SOQKhdgEQAMqC1VFw31/y9fQTk4yZe7/abqc7lSIABUAbQWG41rUqiwozeOBD7MnAZdPP3BPm1r6A2+ceZe+vPu+SYu2aoKRYcWnNdgfmMa2/7xC+ff+IfjID4BW6fLUEzFdrd7seJiTh7+Vim98ohANQyNrRNbMOFWV1uAupVUZ0qTwME6p7DKDhyokW6imLOYDc0McBd50SVfgCr9eGZ7VEhAGExxIQAVB4w/fF5lxx1dZ8nXtRopgB90P7Fz///7qGHvgrEJyU9/OU0gCG/EQDIjwkwFf/y258SWDaUeQgMJoBBxeYaCLnAHn/JkSf47yX21KNvjM19IDW8i+Oy+rmb55fJ7MqEyC/Nf9/0jxFeTht8oiMSF1oLdN15lxz5qcGfdnGhcQL2wcZrTutynr+dGT09wCImp4oTaf18DOQibPMIDWZYxWz+Aw/Uv99mucsuZ/g/Ju9MHOCwfFuvXvlxUpPWfLbM5mf30dKgnYpwbtqnX7sF7ZRob8ZEj/l3rYRskEQjAGrgfZcd/W858ad9czRYboI3uAVRVD4vbN9Yg9vqyzB7/bn455qxf77JhhjifQB5zNRPtGzxvDm7LwGX190nwc2uRvNmXvGsMuzq6sLyQ6J+e+de2wftDX7fBy5dc8esDpIhRTMFqIlJ7HrXGJa+EkyHx6cBDGXWlyY9o/T6M+yUgIHi/wQywMYZWBKZjP1sttCW2exuwfIXl8kAFAmVl78Mz6D+Y/Eb5SMCkHt9UD6Qq5aLKult8jnS6nBIeFNO/CWrkPxM/JMdj9CHZu7JFzaaVYAB8L/eeNfpRPR138MPeN5+sTJg/fOxVYLicrBCAFDhYS8tWH+VwIAyApgKQ9cju/RLxuFfrJAWHL/KYHDGVusX1TTCiZUg4J7JYcqTYUdgQAsBRCwALQRkes5zzp//gUuPub7qyRs4NAJgQLzrjfdckRG/Lrrv3xMCgCcQAEtkJTjKhL5QiC48KEFhDAuXT64izCRYhtjFGd+jI72wFYwFVE5RlDUQsQyk4JCEB0LyK0Fi//Kn33/p0b8/w4++oNFMAQZE1sr/hHv0ShAvB1Pp3QcKVnpTAzUlKM39Muw+8WPYROVKQhlFYl3fsMCwuvxfe0agWHKqeYFAf3MgAq32/VINScnfCCTrUT6DdPwB/U1/rfV1WkV4W00GMx7nVv6/B3zIRY9mH8CAuO6Wv93x3LXvbBHjtNhav+Os3i9gSaL2ABS/XNgFigFfLLERO06xFTaalNHyZwiqLEHk4lopqNg9Y1FXo/W1qZ8ivsmX0vqBEJDxDOTEf/7Bi4/53gw+9qJAswowBSxpj3yYwfcr774IF85wb+4qV8Z2X5MAAA6dSURBVAzEwLbecHarBWZZTG6rddflEqL0lgvvuL3G4tylqzxMumgZcrXD/MsvE2+8+5Kk7r7mX5fI62rFw2sj3+QPXvG1ZQAA3/nYsh2fmZ3eX1hofABTxF+c+ZMNILpSvgWYcgoi6RswKcs8nqNQXtXGhrdBCLojKRYZniYRN+ndfF2lUTMFX9vrOb45lxpfmvtFurTWBzwhYFLkfPoHLz/mGzUfr4FAIwCmgb848yfXgOgFwavAQNJBWKToLwjC81AYuD9hvBdMQLoS02DvJCC8Fx+SvoytQXyTL+7o0/lKZ+I/ffCyo1/V91EbRNE4AaeBHrI/zJhvBDgDUbn8z7ATdDt5Lx187IQCs/vCTxFfDn/35Q/HaMkyW7Sb65OKN2ndnFwJAnUSIT6nrrKOY33d0lcJgvKKJL7w8henIfHjYc96KPJ1OOM/DR+iQV00FsA08edn/uQKAr3OX8qr3gNQXktYBIieu/Kg4kwZuiurHP+pTk/aARxeU9OBQGj42h5qU485l8SX5r45q9D6RTjnCz50xTFvTVW7QX80FsB00cvew1m+gYkysprbU8dmudCGS/1srQNtERR5jEVQ/DJWAqskjvbFejssu50REdK92uD307If4Wl+8dsjfUoQRIlvy+ZEWPgHisydLMua9/ynicYCmAH82RvuugzgN0T/C5AXTv5XIM8iCM+dFSDjXHz8mr6SuCgRkDi4BJ/w/rWQ9GV85FyS3VwLNL0XLqcH//CRy49tPu89TTQWwEyAev+H82wDgDbAxVd+5DyeyYat1hb+AWMRSB8B7Dlg3hGQvoLCEij9AMZdIK8Biuz286K11b9mdzgFEGEhCVKkN3Es6hgjvjT3tekP5z9gdNCjD9R9kgZpNBbADOFPX3/HxQz6/+S2X387sAsXocAiUOdlrGcFyDgdb0gf8QVMA4G8CDYCqUuQQkjG6fN+xPenCs5aYGYQ4zMf+cdjf3caj9WgRGMBzBB6PX4PZfR6gNvWtreqmVTYanJhERgfgbECtFXgrABpGUDFOy0pSS8JGjoGI8uAEW0fK6u8FXzCy3hLYFuur/3d87i0CdPf+AQYnR7hg4kqNhgQjQUwg/ij191xOUCvDz8JDiT/KQhCD79vFdhZgcnvWQsuRoJ8Y2DKkES3ccH1ItYnvYyt3AegiA9n7kNYAAwQ8YUfveK4c2bmyRo0FsAMokf0ySzn1xdnhd42c3Uyy2C+f0B6+K3hoK0C4yso8gs/ADuBYJI4zjtn3FTlQMwS0LIgMh3wSV/+Yhk7APHLKKP90cvp01N8nAYRNBbADOMPNtzx7yCcIr8E7D7mEVoEQLUVEI/Ty3u+pqdISEalOj2i6OWVxBTApOAgXuaq1v5QxBfOPpilwNIK+f7Hrzz+eYnqN5gCGgtghpGDP0WMzxVn7nXhYhlQWgFSPftWAAnt7ib8at2f3FyfS/WvZvTCUlComOOn4AsGXxxozS9+qzit7f3zFPGN74AZAFPzkc8ZRiMAZhpPjl6eL5/4KwIdQDAkJcitwFoQFAOcouehMDDThIIY0g4Q1+x1h9iGoCoEG4BcsUlhEAqCGOlhie6fV770w/zL/QhfGughGvRF8zrwDOOTV6+ZAONC86XanMuPYnIxmHNweV7MceUrse41WEcI85psruJKgtj48ofN/cx1d5g65OhzyDqp/OL13/JHftlYv5bM4bPZtJFnM/UD67qyywfw+Rs3HT85h127INFYAHsAkxn9XTvP/5RAbb3c5ywCOTVw4dAKcMuIIg4QloD/0g/b6y5OQCn2yDJgKnmg9d1ZTPPbK5Vz/bipb+wJIRg7edb7h2QlG0wZjRNwD+H3fue2fyLGK8xyXHwDUOT7gJK4nqMQXpyKFydV5n6/Dq/yD3CE5ZrwsBP/pMkfmPllyVHi27t+5e/+7wm/2afqDaaAxgLYQ+BefglT9gr3+W83/y8+/1f6AvzNQMYqQOkUhLAMAEsmaQlYylt+FoGA7FRNcFf5ylMRx4jIhCjpTb1YZdNTBFjiOyFSTkEurlPtBoOjEQB7CLv33usro0/seIKAvY1mN2/8kdwjYIQCxI6/UjCYj40a015aA2z/wzBEWQLkckjH4CBgGarS+kDEsSdI7p8LoRH934BwlgIzHh/bvfSfB6t5g7ponIB7CBdddPhuIP+SdGo5h5n7LqAL+45Bce451YzTzMQpZxrgvp/npcm99P73A9NpXLmyjroOnmMP3jPIZwLH2yAoGwDlmz559ZqJOezKBY3GAtiDyPPsiyA+m8o1PQZApZlvNH2h9Z1VYHwCxmmoLYNSn5bWgXP+mZ2A7D5B4NWFvLO4McCRUCSFN9UI48urkXOn4bWZb0pT0wUG8jzblKhKgxlAIwD2ILIDJ/+1t6W9jUGrfLKT3Bcgpgfsm/ylvyCYApShlFCATSvXBgw4dBAkGB/bDxAjOwCP8Hpe765XOQSFH6CI3NY+sPO9eM0azASaVYA9jLPPuOVSAp8JIPIvwco5ut3As2c/ClK7tyPCwLcNmOPXAiEQIX1M2zviizKIPv+5r6w9q2atG0wBjQWwh5Fx/hUmOhNwWs44Au2OPyScgdZK0BofIh/gpgyIXLOwTsX+kBo+iBdnMSHAInNUCAiia+sgtDWI+ap6NW4wVTQCYA+jl+FfM0YXoq2NxzvY+FMyVwoDQFoDvkBA8c84Beli5Dfl8oAmAPcVAm4uL6/5Wl+RXpRbmvmp2Ue3Pdr9Ts0KN5giminALOAtZ9x8PYDnVKWJbvyR0wT7SwgEEecFo9enBKulEw5Ccd0nvI1V56givSz42guvWveCqVe8QR00FsBsgOmbIK4UAJIY5aIBiMU0QVgHRRq2cYCbNhj4133U9AHai4H5n7gudwumhEAdMPDNAZI3mCIaATAbaPW+iTzbWDe5mys7s15vH/IcgHZZT0wDIuSXearIGL0WIXCM7K7+dbR8GhnRv04je4OaaATALKC9f35Dd0s2DmDZVPL7hHIEjwsF3zLQrwkNdmdf0/vlWMEzoIbvg51P3fb45pkrrkEKjQ9glnD2GTd/l4AX7qny9SpgxVLgFKBm/xEhsAfw7QuvOukle/YWDYDGApg1EOM60J4TAKwCvtvOq0u/MuYaxN+f6yosFjQCYLZA+bXz5dWLeUP0BAjZdXNdh8WC+TEiFwF2jI5dC9Cjc12PIcAjrQM61851JRYLGgEwS9i06fhJpvxDc12PeQ/mD51//imdua7GYkEjAGYRh23b9lGAvjXX9ZjH+OaOsXs+OteVWExoVgFmGRs2/GDpysll/wDgjXNdl3mGi3eMjr9906bn7JrriiwmNAJgjnDWGbc8jwjnEPNzAewLAAwm8v/Lx0KE27jwCBjXE/NnL/jquuvnuFaLEotgtA0PNm/e/McA/nqu67Gnce+997Zf+9rX9ua6Hg0aH0CDBosajQBo0GARoxEADRosYjQCoEGDRYxmK3CDPYper4ddu3Zh586dGB8fx/j4OMbGxloAGifgPEAjABrMGCTZDeF3796tPhsGAGNjY3NUwwY+GgHQYEqoS/YG8xuNAGjQF91uF7t371Zk37Wr2bC3ENAIgAYKnU7HkvzJJ5/E+Pg4Op3m3ZyFikYALGI0ZG/QCIBFAGbGxMSE8sTv3LkTvd7sOeJbrRaWLVuGpUuXYtWqVfms3bhBJRoBsAAhl9127dqF8fFxdLvdWbu/Ibs5li9fjqVLl9rr9957b+MpnCdoBMAQg5mtc05q9jyfPQXbbrexdOnSJNkbzG80AmBIECP7k08+OavLbiMjI1i2bBlWrFhhyT4yMjJr928w82gEwDyEWWM3x1xo9rGxMSxZssSSfcWKFWi3m+Gy0ND06DzBxo0bs9tvv/2NeZ5jYmJi1jQ7EWHp0qVYvny5mrdnWfOayGJAIwDmCY477jh6/PHH1+/JexARlixZYs13cyyKrxA1iKIRAAsU/TzxDRoAjQBYEGg88Q2mikYADBmG3RM/m5uPGvRHIwDmMXyyD5snPvbG4K5du7DPPvs03wOYJxie0bTAcccdd/BRRx3149WrVz9rGD3xzevBw4lGAMwTbNy4Md+8efOVAJ4113Xph4bsCweNAGhQiYbsCxuNAGhgkZqzN1i4aATAIkVD9gZAIwAWBTqdjnqBaHx8HJOTk7Nyb7P70Ow6XLZsGR5++OFmBWCeoBEACwxz+f2+2FbjYVvNWGxoBMAQo9Pp2DcGG7I3mAoaATAkmMvv9zVkX7hoBMA8REP2BrOFRgDME2zcuDG77bbb3tbtdmft+31ZlqlvAZiXiJrXgxcPmp6eR7jgggs+0u12/2RPlD1fvgVARBvXrVv3nlm9aYMkGgEwz3DhhRde2Ol0zp5OGfPVjCeiT61bt+6/z2klGig0U4B5hgcffPCtT33qUw/qdrun10k/X8nug4guOemkk/7HXNejgUZjAcxDXHnllaM7duy4ptvt/rqMny9m/BTw1SeeeOK3TzvttNn75wQNamHej5zFik984hN7rVy58kurVq16/ooVK0bMf9UZNjDzd7dv3/4bp5122u65rkuDEI0AmOe46aabXsrM/wRgdK7rMgX8+/j4+ItPPfXUHXNdkQZxNAJgCHDTTTedycwXA5hfE/tq3N1qtZ63du3arXNdkQZpDNOAWrRYt27dZQCGyXv+8zzPX9qQf/6jEQBDgvXr1/8dgHfPdT1q4FetVuulp5xyyoNzXZEG/dEIgCHC+vXrz2Pmj8x1PSrwRJZl/3Xt2rV3zXVFGtRD4wMYMjAz3XTTTecDeOtc18XDLmb+ryeffPJ1c12RBvXRWABDBiLie++993cBbJrrugh0iOh3GvIPHxoLYEhxzz33jO3YseNSAL89x1WZYOYzTz755C/NcT0aTAGNABhiMDNt3rz5XCJ6MxEdNMv3ngTw4yzLPnzSSSfdPpv3btCgQYMGDRo0aNCgQYMGDRo0aNCgQYMGDRo0aNCgQYMGSfw/nnYZYHa5hZAAAAAASUVORK5CYII=;" parent="1" vertex="1">
                    <mxGeometry x="130" y="310" width="32" height="32" as="geometry"/>
                </mxCell>
                <mxCell id="8" value="Log Analytics&#10;Workspace" style="shape=image;verticalLabelPosition=bottom;labelBackgroundColor=default;verticalAlign=top;aspect=fixed;imageAspect=0;image=data:image/png,iVBORw0KGgoAAAANSUhEUgAAAQAAAAEACAYAAABccqhmAAAACXBIWXMAANH5AADR+QGceVN3AAAAGXRFWHRTb2Z0d2FyZQB3d3cuaW5rc2NhcGUub3Jnm+48GgAAFV5JREFUeJzt3Xt0HNV9B/Dvb1ayZMsvOeZZzNMUg1+yZR4NpUGAQ8AQQjjmEcrb1KEkJkAbtzk91OGkh0faQNuQBjg4JbRpjp1C2hIIBgopkBiwLMtgwBiMsYywZWNJFrYeuzu//mFMMKx3Z3fuzL2z8/2cs38E373z02TnN7+5c+cOQERERERERERERERERERVRmwHQOk0dXVPYz3qG/f877xk66DeCM34/TX52oE9/11qh3pfmjSqGyK+nUirGxMAmaUqTW8MHFaj/nGal4k+cKh4/iGqcogABwFo/OhTrh0AuhXYIkAHoB2A9654ukE18+rK4+rWM0mUjwmAKqfqzXjtw0kCOREqJynQJJBjAR0VeyyCfvh4HYLVqnhRPV0+tqvh1WdbJBd7LAnCBEBlmdXeN8XPyGxVnCHAyQDG2I6piJ1QvCiCp1Rl2cqpI9pYJeyNCYCKmrxGhw3L7zrdE71AgbOxu4xPqm0qWAbow97AyMdbZ8ku2wHZxgRAnzF3iWbWH7vrSwq9GMC5cPssX6ldovIY4C/pHT7yv986WgZtB2QDEwB9bPqqHX+YycjXALkSwGG244lRD0SXwPfuWzmtodV2MHFiAkg7VW/G6r5zIHIDgNNsh2Ofvqzw7s4MNSxtnSVZ29FEjQkgpZpX6Ai/7sN5UCwAcJTteBz0HqA/zMG/95VpY7ttBxMVJoCUmda+ucHDyHkiuhDJHtCLhQB9CvlRDrk7qjERMAGkxMR1Wjeqf+f1gC4EsL/teBKoVxR376wb+Ie1k/brsx2MKUwAKTCzfce5CrkLLPVN2KaQ7x29tuGHSy+UvO1gwmICqGIzV/c0q+/9EwSftx1LFVrtq3yrvWnUM7YDCYMJoAo1r+gc4deMvAWCvwCQsR1PNRNgqebl+raZo7bajqUSTABVpqmtd4543o8APdR2LCmyVVRvWtk05t9sB1IuJoAqsfusP+o2QBfYjiXFfl1T61318uSRm20HEhQTQBVobu890Vc8BOBo27EQugRyzcqm0Y/aDiQIJoAkU5Wm1b1/LSq3gtf6LlEV/GMmO/rbrs8mZAJIqBOXfzB6qL52MaAX2I6F9ukF+DUXts1s6LQdyL4wASTQtPa+KZ7vPwJgou1YqKT3VeTC9qbRz9sOpBDPdgBUnqa2ntme7z8PHvxJcZCoPj1jZe/ltgMphBVAgsxY2XONCv4FQK3tWKhsCuitq5rGfhciajuYPZgAkkBVZrT13qaChbZDobDkwbE9o+e5slYhE4DrVGV6W8/dAuH9/Woh+ujYnrFzn22RgdKNIw7FdgC0b3OXaGbd0b33Q3GV7VjIMMUz2fqhL6+ZvP+HNsNgAnDU3CWaeWti978r5CLbsVBknvUzg+esnn7gTlsBMAG4SFWa2nrug2Ke7VAoWgo83bij55xnW46wcjnA24AOmtHa8/c8+NNBgNN7Ro39+anPaI2N7TMBOKaptefvVHCT7TgoRoLzekb1PADV2CtyJgCHTF/ZfTWg37EdB1kguHx6W8+i+DdLTpjxUvcXfE+XARhmOxayRqFyRfvxjQ/FtUEmAAfMbN12bF693wIYazsWsm5QBbNXN497Lo6NMQFYNnlN18ia/poXARxnOxZyhXahRme2N41/L+otcQzAJlWp6a9dDB78tBfZHznvF5PXaOSXg1ZuPdBu01u33wjFXNtxkJNOqtm1/TYAN0e5EV4CWDJtxdaZot5y8Mk+2jeFJ19ubx4X2fJivASw4PBn3qkX9R4ED34qTuD7i6cs33JAVBtgArBgzMgxdwKYYjsOSgLZz8vU3htZ71F1TIVNX761BZ48De57KoMqrlh94vifmu6XP8IYTVy3rq6hu3EVgEm2Y6HE2e7VZCe1zTzI6BuIeBcgRg0fNP6NivLgp0qM84dq7wTMrg3BCiAmM5Z/cFxe/DZwqi9VTlXQ8soJ+/3GVIccBIxJHvoDKIZBAX74qfAj4uOeuUvU2EtgeAkQg6m/6zoL8M+0HQdVhclvTNh2NYD7TXTGCiBic5doRoA7bcdB1UNEv3fM81tHmeiLFUDE1k7YdhWAKVDbkVAV2b8u498MYFHYjjgIGKHmFVqbzXatBXCE7ViouiiwA7m6w185ZWx3mH5YAURoaHDLlRDhwU9RGK01gwsAfDdMJ6wAItK8QmuHhrbw7E9R6s0M1h2+qqWxp9IOWAFEJDvUdQmUBz9FakyudvA6ALdV2gHvAkREVb9pOwaqfiL4xuQ1ayqeXMYKIAJTX+j8E0Bn2Y6DUuHgTO/nLgDwH5V8mQkgAqqygIMrFBdVXYAKEwB/p4ZNfqbrQK823wEmV4qRQo9/9Y8PXlHu9/gjNczLZC+HCverQ34wqRGnja830tcTW/uxcG3Fg+6REZUrAJSdADgIaJiKXGn/mRF+PvnxZPcP3cRHxP7fU/Aj+rWJj62rQ5mYAAya9vzmkwAcazsOSqVx9aMb5pT7JZaqBqmfu4jDKlVOAajajmIf9FIAD5fzDVYApqiKQr5qOwxKMZUvTXtic0M5X2EFYMjk5zYdD5VDbcdBMXC2AsAIvy77RQCPBP0CKwBT1OPZn+zz5PyymkcVR9qI6ln2h4L52efHJNt/S7GPjznlLBnGSwADpjy1/gCFTrUdBxWmRjOAGu7PuHFvjN/YBKA1SGNWACZkameDw//kCD/jnRG0LSsAAxR6BpTHfypEcUlhmsrpAO4I0pQVgBkn27/442ffH9Ns/z0lPuKf3LxiRaAXz7ICCGnSU5s+B/WPsh0HxSiKnGKSYkT/zvFTALSVasoEEFJNJv9Hqrz+TxfXMwAAX04AE0D0NC8nQBLwg0gzk//3RHVVYdruBFDyteIcAwhLdLrtEIg+TQTNQdqxAghJoZNtx0ClmDtlK5yfB/ARPQZLNIMLJV+sFRNACM3/0zmiX4e48m/aJOH4B+qnjtt42CvA+mKNeAkQwq4RQ5PAfUiOyqmWXJuCFUAInvpHaowTgOo9wa3HjTfW3wPv9mJt35Cx/lLD3acB9+KJHAPgV8XaMAGE4h0aZz1Y4wnmHFjW495FPbr5Q6ztM9YduUZ1QqkmTABh5PMTIDFOATB95tEI+nSR8duAydhnChxSqg2vX0NQSMkMS2RRyQTACiAEFRwQ6/Yi6C8Z5zK3JGif/UGpBkwAoei4WH8Nxi8BNDHlbDiGrwGSs88aSzXgJUAYqmNth0BURANKrA7ECiAUaYy3AkhIn9UuOftMmvbbMGoVsM9XGTEBVGqJZqBvD493oxwFcENy9tngLh2DIgmAlwAVmjjyLSZPcp5Ci74ujD/iCo3JN2R2yc54N8pBwMqkdB4AAPg1+aIneSaACvVmdtbEvfN4AeCGJO2z2rzHBBCF4f6wTNaLeR49M4AbErTPfF+YAKIT9y+BtwEqk8YlgfYoPlWdCSCMpB//SfstuyJB+yyv+Vyxf+ddAKIq5me8bLF/ZwVQsV4ARe+wRIAlgBuSs89qNVe0AmACCCPplwBR9emaNA8B1KDoSDUvAYiqWH/d8O5i/84KIASNeUKI8e2pGuvzwPoaHDum3khfvip+02VukpX5eUCJKQEGNrQcMVCsARMAGXHS+BG4vekgI31lfcXUx9400lfKFT37A0wA4cR9JnB5STDj45Omz9sG+0pIBaDA9lJtOAZAVKVEsalUGyYAoiolwMZSbXgJEEbSLwGMlrMRPKnoogQ9DahAR6k2TAAhJP34N/k0cBSxmevMYF9IzPEPVWECiFbSZwKZnNUSRWyucjm239MM3ijVhgkgDB7/e/dlksvHmMuxfYI/UPd6qTZMAKEwA0TH5bhcjW0vm9ZfeFRvqUZMAGEk/fiPqk8TXI7L1dg+QYDXgrRjAqjQ7mcBY54KbHh7arBP87G5Owpo+m+NggIvB2nHBBBG0iuAtIwBuBxbRFTlxSDtmABCYQaIjqtxAW7Htlu+Fi8FaccEUCkb64GYxuO/Mi7Httv6d86buiVIQyaAUNz/JRSXlmsAk1zOmnvIs0FbFk0AF/zig8niZZ4LHU/C+KpfefiCxv8r2ZBXAHv3ZZKrx1gCjn+BPhm0bYkKQDII8IrhauN5UhukXdyjwVFsz1yf7o60m+3L+bsA6mfkf4M25iVAGEmvAEz26XIF4HJs5q16+6vTu4I2ZgIIg08DRcfVuAC3YwP+q5zGXA+AqIqoev9ZTntWAGGwAti7L5NcPcu6XDUB696+ePqr5XyBCSCEpA8B8CZAZVyNTYCyzv4AE0A4Sa8ATPbpcgXgcmwG+Xn9Wbnf4RgAURUQyEvr/3TWK+V+jxVAGEmvAFy+nnU1LsDJ2HzVf63ke6wAiJKvP4dhP6/ki6wAQmABsHdfJjl4kt3NwaJJoQ9tvHRaybcAFcIEEArvA+zdl0mOHWUfc/BhAPHuqfSrTABh8PiPDqcCByLQJ9Zf2ry60u+XTAAO/a2xkUCtbCwIwAxgv68o+qtcXvSuMN8vXQG487fGJx+wXdIrAJN9Vu8x9lnOxCatGy49fhkurbyHABWAM39tbCRgDZD0x4HNPtrq8uPA5rj0OLCofwtEQgXD24BhqIWPy/G7GpurcYX7m1rXX3bi42H/nNIVgBvJLla5oA15H/CTnRnqZ093rv7wTO6zEHx8J+zZH+BdAKLkEfzqnStOWmaiq6IJIAteIxSV9ArA5NnMeGgGO6yuWUr5jGYWmuoswF0AB8qd2AUdBIxXFNtz9ALAkWG2wmzGJop737rqhDWm+uMlQBhJrwDUYJ/VdZbdN5P7rNxNi24bNlT3tyb75ESgAoKd/+M3kPex8IW3jfX3evdOY321dvUZiy1v+AB78PXNeLqjoqnyn7Gxb8BIPxVRueHN+bO2meySE4EKCZoBYj4T5PKKJW8GeuFL7N7d0Y93d/TbDqOg33b22A4hPMGyd686uewFP0phBVBA0ImARDHp89W/LoqOA4wBpDEFBJgJ0AugLo37hmIncsPGq09ZH0XXrABC4L6h6Mkv37365J9E1XvxBDAEIBPVph0W+GEgpgCKVGc2n702yg2wAiByU86Df0nn/Bajo/6fxnkAYbACoIiI4NvvzPtC6TdUh8SHgQoIPA8ghfuGYvHLDfNOuRvzot8Q7wKE4Mpz4VRFFG39Of8yE0/6BVE0AQwhnQ8DBZ4HwOOfzOrM5XDe1utbPoxrg5wJGAp3DhnT54nO6by+pSPOjfIuQBjcOWTGIIALNsxvWRX3hnkXIBRmAAotD5HLNs4/9UkbGy+RALJQTeEogARcD4DHP4WjgP5Zx9dbltoKIIVHN5ET8iq4tuO60xbbDIJjAAUEnweQxr1DBuREcU3H9af91HYgvAtQiG87AKpigyp6Scefn/6I7UAAVgAFBT7+WQFQORTbAZy/6RunRz7FNyjOBCwo2FSgNO4Zqth6X705nd9secN2IJ9Uellw/sr3jRUABSCQF/K13leifrKvErwLQBSt+0Zv++A0Fw9+gGMABQV+PbjG/XpwSpABUVzfsWD24k22IymieAJI66uBAq8KHGkUlFi6RlQv7rjhzFdtR1IKXw9eQPDjP337hopSiNyvwwZv7Jx/7i7bwQTBZwHC4PFPv/eeql7V+a0vWpnTXymOARQQ+PXgqdw79CkK4P5+yf/l9hvO3mE7mHJxJmAhHAOgYFbD8+a/t2D2ctuBVIoVQCjcOyn1gQDfH9Oz4641iy4csh1MGJwJGAZ3TdoMqcqP64e8W9b/1exel2/vBcVVgQuQgIMAvAuQGkOAPAAvc3vnDbM32g7GJN4FqFQvAM4DqnaDAB6Aerd33nxmrGv1xYWrAhcQeD0AVgDVqguCn3ia/+dNN537nu1gosS7AGFw31QXwYuA3juiRn721oKzB22HEwfeBSiA8wBS5X0ASwX+4vduOrfddjBx412AgrgoaJXbBuBxUVnaOXr/X2P+rKztgGzhXYBCAk8ESuPOSaS8ACtU9UnJyOOdfSuWY9EiLvwG3gWg6jQAoBWQFwH/+bqa3DMbbjy/x3ZQLuIYQAFcFThRNkLwOnysEcHrvqftm0cdvCrNZX05iiaAA4fvv+b97MZxcQXjisy6Q/tKtfmwwcvXDeRb44gnTQTYob9flNFXoFuAbgA9AnT7wGYINvqa6Rhdj01pGa0nIiIiIiIiIiIiIiIiIiIiKqXopLdT7+kaOTA8e1JcwbhCfH/l7+ZN2F6q3fGLtxyZQe7IOGJyRt7PLb92wrO2wyAzis4E7B82eCTyXqLWOTchL3IGgKdLtZN87jIFFkUfkUsyvQDG2o6CzOCbgUJK3/5J299b3dK44hcRfYTrARSSL90EAHwAksb9Q1WDFQBRihWtAPh28NJYAFCSBVgVOI0/8YApwOeqUpRsXBGogIBDALvHAKIMhChiaazwiegjxSuALKBMEUWl8gqJqgYPb6IU4xhACBwDoKTjXYBCJODovg8wRVKSsQIogPMAKC04BkCUYkUrgCEAmRSe4nw+C0ApwQqAKMX4evBQOBWYko2DgCFx/1CSBbgNGEMUScUCgBKOFUABQW8DciIQJR0HAYlSrEQFkIWm8GkgKeO8rmmcKUlVI31HNxF9jGMABeQCtuMYACUd7wIUUs4oIFGCsQIIKW37hxVPdeFMwIJYAlA6FF8WfAjwUjhMWM5yAGl7GChlf27VS+HhTUR7cAygAC4IQmnBuwBhcAiAEo4VQAGcB0BpwbsABQVNAUA69w9VC74evJAyTuup2z8seaoK7wIQpRjHAArgegCUFqwAiFIswLLg6asB8oFLAD99FVLq/uDqxgqAKMU4BhACxwAo6TgTsBBOA6CUYAUQEvcPJRlnAhbEx4EoHYongCyQwkWBg88D8DkGQMmWwsObiPbgGEABAd8ODiCd+4eqB+8CFMIhAEqJABVAGn/hwTKAD59jAJRoHAMgSrHiqwID8FgA7JvPKwBKNlYARClWtAIQ+H4az3BcD4DSomgCyGhmWx7ZuGJxR66MhwFS+Lg0VY+iCWDDrsO7DhmxrhfAmJjicUI5q33z8KckKz4GsEh8VTweUyxEFLOS8wAEepeqXARe7n4GnwWgpCt5F2DTwmNegspDcQRDRPEK8DgwIMPqv+5nd00E5PNRB+QCzgSmtAg0D2DTTRP6vdoRZwD64O5hb0V1f4LyHYjV5f1DrgtUAQC7kwCAKw+4Y92PPfgLoDgLwNjoQrNHApYAPgBJ2fHAMY/qEjgB7LFl4dHLASyHquz3/dcOGObXHOCrX3Y/LhsUeTNIu1wuf1+tJ49GHY9LJJMp52lpIiIiIiIiIiIiIiIiIiKK1/8DZV8wVWH53tEAAAAASUVORK5CYII=;" parent="1" vertex="1">
                    <mxGeometry x="250" y="310" width="32" height="32" as="geometry"/>
                </mxCell>
                <mxCell id="9" value="Storage&#10;Account" style="shape=image;verticalLabelPosition=bottom;labelBackgroundColor=default;verticalAlign=top;aspect=fixed;imageAspect=0;image=data:image/png,iVBORw0KGgoAAAANSUhEUgAAAQAAAAEACAYAAABccqhmAAAACXBIWXMAANH5AADR+QGceVN3AAAAGXRFWHRTb2Z0d2FyZQB3d3cuaW5rc2NhcGUub3Jnm+48GgAACEJJREFUeJzt3U1oZWcZB/Dn3CQ3k7SZaeqEjlJHqJZaSlHQ0iLWD+zGOoNYsIJ0IUrp0roWEbcu/ABFKLpwo6DYRWcUrYtaWtQKLRVR2oWKbafOR9Nmkt5OPu9x4y7MvenMyTlv7vP7bc+5cx7Cef95ntwz540AAAAAAAAAAAAAAAAAAAAAAAAAAAAAAAAAAAAAAADenupKP/jRp04vbkQsNlkM8PbNRrzx9N0n3riSz76tALjjD4/dUfXqr1YR94bFDwWpXo+ofxPV8HvP3P25Z/f8qb2cdNvff9FfWJ79fh3x0F4/A3Sijrr+0fY15x5+9sMPbY07eexi/sQTT0xf6q0+FlV8upn6gBb8+vjZjc/+8v77d0ad1Bv3r6xPXfyWxQ8HzmdeOjb7zXEnjewAPvT0qePTw+GLEXGosbKAtlzqTfdu/tNHTp653AkjO4CpYf1AWPxwUM3VO/UDo04YGQBV1J9sth6gTXXUnxp1fNzfAI43WAvQvnePOjguAOYbLARoWx3Xjjo89lsAYHIJAEhMAEBiAgASEwCQmACAxAQAJCYAIDEBAIkJAEhMAEBiAgASEwCQmACAxAQAJCYAIDEBAIkJAEhMAEBiAgASEwCQmACAxAQAJCYAIDEBAIkJAEhMAEBiAgASEwCQmACAxAQAJCYAIDEBAIkJAEhMAEBiAgASEwCQmACAxAQAJCYAIDEBAIkJAEhsetTBB48e/1tdxcttFQM0q6pj5ZkRx0cGwL3X3XB7RNzYbElAi14ZdXBkANR13WwpQFH8DQASEwCQmBEAEtMBQGI6AEhMBwCJCQBIzAgAiekAIDEBAIkZASAxHQAkJgAgsSJHgF6vF4uLizE/Px+9nozi4NrZ2YnBYBArKytFjtQjA6ALVVXFsWPHYmZmputS4KpNTU3F4cOHY2ZmJs6fP991ObsU9+t1YWHB4mfizM3Nxfz8fNdl7DK2A2i7ben3+61eD9oyOzsbg8Gg1WtWVTXyeHEdgJmfSTVuMXbBaoPERo4Aw+GwrTpg4tV13fpIPe56OgBITABAYkU+CASTqrQ1pQOAxHQA0KLS1pQOABITAJBYcSNAaS0SNKWL5wDG0QFAYgIAEituBIBJVtqa0gFAYgIAEjMCQEt8CwAURQBAYsWNAKW1SNCk0u7v4jqAra2trkuAfbG9vd11CbsUFwBra2tdlwCNGw6Hsbq62nUZuxQ3AgwGg7hw4UIsLS21fm3YD3Vdx9mzZ2Nzc7PrUnYpbmegiIjl5eUYDAaxsLAQU1NTXZcDV2xrayvW1taKXPwRhQZARMT6+nqsr693XQZMtOJ2BgKac+B2BgLaY2MQmGA2BgEuSwBAYsU9BwC0RwcAiQkASMwIAInpACCxYh8F3o46/rW9Eav1TtelwBW7purF+6YPxUyMfiKvK0WOAC9uX4ofDy7EisXPBLiuNx1fnj8at07PdV3KLsWNAMvD7fjB4LzFz8RYGW7HDwfn4rWhF4KM9cfNN2O99ggyk2WjruP3Gxe7LmOX4kaA8ztl/r9puFrndraK+2atuA5gtiquJGhEiX2t1QaJFTcCwKSyMxBQFAEAiRU3ApTWIkGTSru/dQCQWHEdAEyy0taUDgASEwCQ2NjXgo/bWKBppbVI0KS272+vBQcuSwBAYvYGhJZ4FBgoigCAxDwIBC0qbU3pACAxAQCJFTcClPn2dLh6VfgWYKzrY6rrEmBfHK3K24enuAC4a2ouFsorC67KdFXFx6ev6bqMXYobAeajiq/0F+OnWyvxhs1BmABzUcUXp47EDTFV3AhQXk8SETdVM/H1/tH493ArlkMIcHDN1VXcMtWP+UK72iIDICKiH1Xc0ut3XQZMtOJGAKA9ZfYlQCt0AJCYDgASEwCQmBEAEtMBQGICABIzAkBiOgBIrNhHgSMiVjc34vWN9a7LgCt2uD8b188e6rqMyypuZ6CIiNfW34qf/OP5eGFlufVrQ9NuvPZwPHjrB+P4wpHWr33gdgbarofx3b/+xeJnYrzy5mp8+/k/x8XNja5L2aW4AHjq1Zfj1cFa12VAowZbm/G7l/7ZdRm7FLcz0Jk3V1u9HrTllcFacd+sFdcBDAv7AUFTdobDrkvYpbgAANrjQSBoUWlrSgcAiQkASKy4EaC0FgmaUtd2BgIKUlwHAJOstDWlA4DEBAAkZgSAFpW2pnQAkJgAgMSKGwFKa5GgSaXd3zoASKy4DgAmlScBgaIIAEisuBGgtBYJmlTa/V1cB9DFa8ihDSXe28UFwJF+v+sSYF8s9me7LmGX4jYGuXPpXfH4mf/E+s52q9eF/dSLKu6+4cbWR4ADtzHIYn82vnTzbTE3VfSuZbBn01UvvnDT++M91x7uupRditsXICLi9uuOxjc+cFe8cPH1OLf+VnF/OIG9Wpjpx+2LS7F0aK7I+7jYX7NH+rNx59I7uy4DJlpxIwDQnuKeAwDaowOAxAQAJGYEgMR0AJCYDgAS0wFAYgIAEjMCQGLjOoBLrVQB7JeRa3hcAPy3wUKA9p0ZdXDc+wCerKrqY83WA7ToyVEHR3YAdV3/LCJ2Gi0HaMtOr9f7+agTxr7u5/Tp049ExIONlQS05ZETJ048NOqEsV8D1nX9cEQ811hJQBueq+v6a+NOGhsAJ0+efCsi7qmq6vFGygL2228j4p7/r92R9vzGz7quq1OnTn2+qqqHI+LO8BARlGQYEc9ExHdOnDjxq6qq9vQQzxW98vfRRx99x8zMzHurqirvLYeQTF3Xq1tbW/+87777lruuBQAAAAAAAAAAAAAAAAAAAAAAAAAAAAAAAAAAAAAAJt//APpvZe3bWzxOAAAAAElFTkSuQmCC;" parent="1" vertex="1">
                    <mxGeometry x="130" y="206.26" width="32" height="32" as="geometry"/>
                </mxCell>
                <mxCell id="23" value="Message&lt;br&gt;(Web Hook)" style="edgeStyle=none;html=1;startArrow=classic;startFill=1;" parent="1" target="5" edge="1">
                    <mxGeometry relative="1" as="geometry">
                        <mxPoint x="292" y="104.25999999999999" as="sourcePoint"/>
                    </mxGeometry>
                </mxCell>
                <mxCell id="21" style="edgeStyle=none;html=1;startArrow=classic;startFill=1;" parent="1" edge="1">
                    <mxGeometry relative="1" as="geometry">
                        <mxPoint x="152.98000000000002" y="72.25999999999999" as="sourcePoint"/>
                        <mxPoint x="260" y="72.25999999999999" as="targetPoint"/>
                    </mxGeometry>
                </mxCell>
                <mxCell id="22" value="Message" style="edgeLabel;html=1;align=center;verticalAlign=middle;resizable=0;points=[];" parent="21" vertex="1" connectable="0">
                    <mxGeometry x="-0.2781" y="1" relative="1" as="geometry">
                        <mxPoint x="8" y="1" as="offset"/>
                    </mxGeometry>
                </mxCell>
                <mxCell id="27" value="LINE&lt;br&gt;Platform" style="ellipse;whiteSpace=wrap;html=1;fillColor=#00ba00;fontColor=#FFFFFF;" parent="1" vertex="1">
                    <mxGeometry x="262" y="42.26" width="60" height="60" as="geometry"/>
                </mxCell>
                <mxCell id="28" value="" style="shape=image;verticalLabelPosition=bottom;labelBackgroundColor=default;verticalAlign=top;aspect=fixed;imageAspect=0;image=data:image/png,iVBORw0KGgoAAAANSUhEUgAAAgAAAAHoCAYAAAA/h1eIAAAkE0lEQVR4AezdA5glWbZA4XMzy1ZWjVkae9oYtkdt27Zt27Zt22b1K7c7y2xW5n7rGVPKrIuIG2vH98dnawXOOclxnIzOvakzBmEYFsMKWBtbYy8chbNwFe7Cw3gSz+FlvIGRGIf30YypmIXP0fqfPscsTEUz3sc4jMQbeBnP4Uk8jLtwFc7CUdgLW2NtrIDFMAyD0BkpeyRxqyJJJfTBD/EnbIz9cAZuxrN4H58i6sSneB/P4macgf2wMf6EH6IPSkh5JBkAkkoYiKWxKY7CVXgUozAbobmajVF4FFfhKGyKpTDQQJAMACkL+mExbIDDcDVewHSEKmI6XsDVOBQbYDH0Q5JkAEjl1A2LYRucg6cwGaFMmYyncA62xmLohiTJAJAWZBBWwN64GiPQgsgltWAErsbeWAEDkYpLMgCkJvwNR+EufIgoBH2Iu3AU/oYmpPojGQBSCcOxOS7GSIT0v4zERdgcw1FCyhfJAJC6YCnsjdswCdEG0iTchr2wFLogZYtkAEidsCyOxJP4HFFG0ud4EkdiWXRCqi7JAJBKGIztcStmIqpImolbsT0GI0kGgFQZvfF3nI2xiAyRxuBs/A29kSQDQGqfEn6OA/EE5iByQJqDx3Egfo4SkmQASPPWgCVxAsYipDowFidgCTQgSQaAklJH/AFnFmAtvvQhzsQf0BGpSGQASF2wGi7GZEQBSZNxMVZFFyTJAFA96ohVcDVmIiQBmImrsQo6IuWZDACphF/gZDQjJC1QM07K4w+EMgCkr2EPvIaQ1G6vYQ98FSmLZABI3bAu7kELomwkteBurItuSJIBoFoqYXFciBmIipM0AxdicZSQJANA1dINm+FFhKSaeRGboRtSpcgAkAbjRExBZIakKTgRg5EkA0Dl0IjVcDci8yTdjVXRiNRWMgCkJuyNcQhJuTMOe2MAkmQAaEGG4nx8hpCUe5/hfAxF+v9kAEi/xvVoRdQdSa24Hr9GUrEZACrhj3gAIakw7scfUUKSAaDiaMQaeAEhqbBewBpoRKpfMgDUGVtiJOI/SdJIbIHOSPVDBoA6YXvP25e0AB9gO3RCkgGg/GrExhiHWEiSNA4boxFJBoDyowFr4C1EO0nSW1gdJaTskgGgElbCiwhJKpMXsWI2Q0AGgJbB44gKkaTHsAySDADV3s9wD0KSquRu/AxJBoCqrwnnoAUhSVXWgrPRhFR5MgDUEbtgGkKSamwqdkZHpMqQAaAVMQKRMZI0AisgyQBQ+QzFHYiMk6TbMQSp/WQAqDeOxxcIScqJL3AceiEtPBkAKmFDNCMkKaeasSFKSPMnA0DfxX2IOiFJXOm7SP9MBoA6YDfMRtQZSZqNXdGIBMgA0M/wPKLOSdJz+BmSDIAi64qjMAchSQXxJY5CVyQZAEWzPEYiJKmgRmI5JBkARdAL5yP+nSTpvHpfMmgAaCmMRfwfkqSxWAqpnhgA6ojD0YKYK0lSCw5HRyQZAHk3FM8hFook6Vm3EzYA8qyErTAb0SaSpNnYEiUkGQB50YRbEYtEknQLmpCyzgDQyvgYIZWFpI+xEpIMgCzqiBMQFSFJOgEdkGQAZMVX8RiioiRJj+KrSDIAam1ZfISQJFXFR1gGSQZALZSwO+YgJElVNQe7oYQkA6BaeuEGhCSppq5HT6RKMwD0I7yNkCRlwtv4IVKlGABaF7MRkqRMmYV1kMrJAFADjkZIkjLtaDQgLSoDQN383i9JuXI9uiK1lwGgr+BZhCQpV57FICQZAG31Y7yDkCTl0nj8GGlhGQBaATMQkqRcm44VkBbEANC2mIOQJNWFOdgGSQbA3DTiJIQkqS6dhEYkKN0LdcFNCElSXbsJnZFgABRcDzyAkCQVwv3oDgOgwPriaYQkqVCeQl8DoJgG4VWEJKmQXsEgA6BYvo2RCElSoY3EtwyAYhiGdxGQJOldDDUA6tvPMQHxv0iS1IyfGwD1aUlMQ0iSNBfTsIQBUF8Ww0zEfEiSNAO/NQDqwy998pcktcFU/MIAyLcfYxJCkqQ2mIQfGwD5NAzNiHaQJOljDDUA8uX7+ACxCCRJeh/fMwDy4Vt4B1EGkiSNx7cMgGz7GkYjykiSpFH4mgGQTU0YgagASZJGoMkAyJZueAZRQZIkPYNuBkA2NOJmhCRJVXATGg2A2jsFIUlSFZ1sANTWLghJkmpgFwOgNlZHK0KSpBpoxT8MgOpaEp8iJEmqoU+xhAFQHUMwCSFJUgZMxGADoLIGYBRCkqQMGYUBBkBldMBDCEmSMuhBdDAAyu94hCRJGXacAVBeayEkScqBNQ2A8vgRZiEkScqBWfihAbBoemMkQpKkHPkX9DYA2qcBtyIkScqhW9BgALTd/ghJknJsPwOgbVZEK0KSpBxrxQoGwML5JqYgJEmqA1PwTQNg/hrxMEKSpDryEBoMgHnbCyFJUh3a0wCYu1/iC4QkSXXoC/zCAPi/umEEQpKkOvYWuhkA/+NMhCRJBXAGDACsgpAkqUBWLnoADEQzQpKkAmnGwKIGQAl3ICRJKqDbUSpiAGyCkCSpwDYuWgA0YTJCkqQCm4QBRQqAyxCSJCldWpQA+CMCgCRJ+kO9B0BXjEYAkCRJo9G1ngPgKMQ/kSRJR9ZrAPwEXyL+iSRJ+hI/rrcAaMBTiHmSJElPoqGeAmBbxAJJkqRt6iUA+mMqYoEkSdJU9K+HADgFsdAkSdLJeQ+AIf74J0lSm32BwXkOgBsRkiSpzW7IawAsjWg3SZK0VN4CoIRnEe0mSZKeQSlPAbAOYpFJkqS18xIAXTAescgkSdI4dM5DAOyBKBtJkrR71gOgN6YiykaSJE1F7ywHwH6IspMkSftmNQB6YBKi7CRJ0kR0z2IA7I6oGEmStFvWAqArPkJUjCRJ+ghdshQA2yMqTpIkbZeVAOiEdxEVJ0mS3kWnLATAFghJklQ1m9c6ADpgDEKSJFXNaHSoZQBsgJAkSVW3fi0D4HmEJEmquudqFQC/QUiSpJr5TS0C4BKEJEmqmYurHQD98RlCkiTVzKfoX80A2BMhSZJqbo9qBUADxiKkmpMkjUFDNQJgZURmSJKklaoRAHciMkOSJN1R6QD4HloRmSFJklrx3UoGwFGIzJEkSUdVKgBKGI/IHEmSNA6lSgTAkojMkiRJS1QiAM5AZJYkSTq93AHQAc2IzJIkSc3oUM4A+DMi8yRJ0p+QFqj2B//o50/9PM5771/Zu+vgNu70AeMjpw5T03GozMzs5od35zZ4UA4nhykzMzMzc0PTsFNTmEFxmDwOgxkCRum9fQ91GcWk/S7Iz+t5/vbOa2v3Y9DuJxIsD9rSpzs/lQsXXMhuD6llRksZuGqgpBemy9KypTE3u3i2jFo3Stpntrf9WE+Yc4K8lPuSLCldYsuxavNL5svb296WnrN6Or17z+/nu93fyVWLr7L9OFukt5D+wf4yJX/KP16fpF+zxzY/Jt1ndee8ZK4v7QJAa6syFmqmfsF+YmoGBAew44h+LvxZTMzmA5slkBaw7ThPn3e6hMIhMTXbK7bLsbOP9e3X8cx5Zxrbz+3rb7f1WN/d9q5EH2Z/7X7pnNWZc5OZyqxa2wGA37FMc00vmC6mJq0wjR3/o1Pnniph68PU9F7e27ZjfWvbW2J6soqybEWLk5m8qG7Yv8G24+yQ1UHKa8rl8MPcuf5Ozk/m+q0dABjPIo1l8qKko7+CZM9Wt62/TQyO/mrdtmPVi5ATc9eGu3z5tdTfuJick+acZMtxpixLkTqH0R+AOD+Za1ysAGhrVcEizaUDAMynP2mYnPe2v2f2AmdgKkIVctb8s3z3tcw9mCsGR39bZMtxXr3samFc/C0lVVi1jQUAPPkPALgfADA2+k9ZiemJAAAAAID4rHcsAHiXBQIA9wMAJueF3BcAAAAAAPHZO7EAYHN8LwcAAAAAUBuuleTFyQAAAACA+GtTUwFwCssDAO4HAJyYnAM5Ju5nAADcHwBAJzcFALezOADgfgDAqdEbSAEAAAAA4q7bmgKAVBYHANwPADg4ete6+AIAAAAANK2xAGjD2/+aHwAAAADIq8qTpJlJ8QMAAAAA6KBV68YA4GqWBgDcDwC4MRPyJsQXAAAAAKCUxgDgLRYGANwPALg1I9eMjB8AAAAAQG82BgBrWVjzBQAAAAB6D/sT55wYHwAAAACA1jYUAJ1ZFgBwPwDg9swtmSsJ6QnxAQAAAACoc0MAkMKiAAAAAAA6D256MD4AAAAAAP2qIQB4wkoIAAAAAFAVqpLzF5wPAACA/wFAjzcEAKlWQgAAAAAAndX7VkurjFYAAAD4GwA0rT4AJFgVsygAAAAAQOS8tuU1AAAA/A0AKrIK1AWA01nSoQEAAAAAQuGQ/O/S/wUAAMDfAKDT6gLAMBYEAAAAAIg22yq2ScesjgAAAPj3+RM0tC4AfMiCAIBfAwDm55td3wAAAGDbXLzwYs5PzvZBXQBYwYIAgJ8DAObn2uxrAQAAiGl2V+6WRzY9wrnJ+YKHA0BbqxALAgB1BQAAQGF1oXSf1R0AuAyA5WXL5b+X/LfvSl6cLInpiZyX3KnWqm00AFzIcgBAPAQAzE9qQSoAcBkAmUWZTTkuoguiAeBmFgMA4iUAYH5GrRsFAPwHAKKbogHgaRYDABoaAAAAB2oP6MUSAPgLAERPRQPAGBYDAOIpAGB+FpUu0u8xAOAfABCNjgaAlSwGAMRrAMDcPJHzhH8AAACIsg8FQAurChbT2AAAAAAANeEauWThJf4AAAAgqrBKiATAiSwFAMRzAMDsbNi/QdpktPEHAAAA0QmRAOjNQgBAPAcAzM+72971BwAAANE1kQC4m4UAgFgCAAAgbH2kLEsBAACAvN9dkQD4mIUAAL8HANyfXZW7pMuMLgAAAJC3+ygSAGksBAAAAABgx4zeMxoAAADydvrBWwABAAAAAPbPwFUDAQAAIO+WHQmAPBZiVwAAAACAkpoSOWb2MQAAAJA32/tPABxhFWYhAAAAAAC7L1CBtAAAAADkvUJWLRQAPVgGAAAAAMDE6N4BAAAgT9bd2GOACQAAAABQEaqQM+edCQAAAHmvCxQAfVgEAAAAAMDULC9bLonpiQAAAJC36q0AGMkiAAAAAAAm5/nc5wEAACBvNUIB8AiLAAAAoPkAILs8W5ye2nCtXLn4SgAAAMg7PawAeIdFAAAA0HwA0GtxL9lbtVecnpwDOdIusx0AsPGtljOKZviu9MJ0uW39bdIpq5O75wV6WwEwhkUAAADQfABwxrwzpG+wr7gxn+z4RAAAo1NcXSwdsjq4d16g0QqAKSwCAACA5gUA/Tx6MXZj+gX7CQBgdP6y7i/unRdosgIgg0UAAADQ/ACgv47XX8s7Pfrnh6SZSQIAmNSCVPfOC5SuAJjLIgAAAGh+AND0H/P0H/Scngl5EwQAMGmFae6dF2iOAmApiwAAAKB5AkDTt+i5MSPWjAAA7g0AoCUKgNXNdwEAAAAAAL1Jj96sx+kprymXE+acAAAAALnTKgXA5ua7AAAAAACAprfr1dv2Oj1ziudIQnoCAAAAzkebFADbm/cSAAAAAACRO3J6Htj4AAAAAM5H2xQA+SwCAAAAAKCP7tW7yzk9VaEqOW/BeQAAADgb5SkAylkEAAAAAEA7ZvYxoneYc3pW7VslrTJaeQIAp809DQAAgOZQmQKg2koIAAAAAKANXDVQ3JjXtrwGAACAc1GVAiDMIgAAAAAAkY3eM1qcnlA4JP+z5H8AAABwJgorACpZBAAAAAAgsiNnHCm7KneJ07P14FbpmNURAAAAMl+FAqCMRQAAAAAADi1lWYqErQ+n5+tdXwMAAEDmK1UA5LEIAAAAAEC03t32rrgx12ZfCwAAAJlt72HvA0AAAAAAgDYZbWT9/vXi9BRWF0r3Wd0BAAAgw/cB2MQiAAAAAACH65KFl0hNuEacnmkF0wAAACBzbeRZAAAAAACAensi5wm3nhcPAAAAGXwWwDIWAQAAAACoK/0+WlS6SJye/bX79c58AAAA2B8tVQDMYxEAAAAAgPrSC/GB2gPi8Cg89PsYAAAAe6O5CoAsFgEAAAAAaEij1o0SN+bxzY/HIQCYL3d9yfnJvTIVAJNYBAAAAACgoaUWpIrTUxOu0X9GjDMAMFcuvpLzk3tNVAB8yiIAAAAAAA1N356nb9NzevTtiPq2RP8DgCmtKZVXtryiT6Dk/ORenygAnmcRAAAAAIDGpDfqcWPe2fYOAPjHrCxfKf2D/X1X7+W9pV1mO85L7vecAuAOFgEAAAAAaGzf7PpGnJ6w9VEZqgQA1mQWZcZyfER3KABuYhGNDQAAAACgD+3Rh/f4cgAA0Y0KgP9nEQAAAACApqSP79XH+PpuAADR/ykAzmERAAAAAICm9tqW18R3AwCIzlYAdGURAAAAAICm1iqjlazet1p8NQCAKEkB0MIqxDIAAAAAAE3t/AXnS1WoSnwxAIAoZNVCAaDlsRAAAAAAQCw9uOlB8cUAAKI8K2vSNB4IBAAAAACIrYT0BJlTPEc8PwCAaGkkAH5kIQAAAACAWDtxzolSXlMunh4AQPRDJACeYSEAAAAAADsauWakeHoAANHTkQAYwkIAAAAAAHY1IW+CeHYAANHgSABcwUIAAAAAAHaVNDNJ9lbtFU8OACC6PBIAR7EQAAAAAICd6YNfPDkAgKhLJAC0YpYCAAAAALCzT3d+Kp4aAEBUpNf8QwGwmMUAAAAAAOysfWZ7yTmQI54ZAEC0KBoAvmMxAAAAAAC7S16cLLXhWvHEAACib6MB4AkWAwAAAAAw0Qu5L4gnBgAQPR4NAP1ZDAAAAADARInpiRIsD4rrAwCI+kUDQE8WAwAAAAAw1Vnzz5KKUIW4OgCAqEc0AGi7WE58AUBvyPJT3k++6uFND0vXmV0BQJwBQLtrw10AwKYpqC7w3WtbG7t3rAxeNVhaZ7TmGuB8O/VafzgATGJBXgAAUx2ull6LewGAOANAIC0gWUVZAgCYXZW7pG1mW64DzjaxLgA8wYK8AgBm9J7RACDOAKAdO/tYKakpEQDAjFgzguuAsz1WFwD6sCCvAICpCdcAgDgEgDZo1SABAMzU/KlcB5ztmroA0I0FeQkADACITwBoY/aMaeYAYNIK07gOOFtSXQDQtrMkAAAAAIDpuszoon8HBgAAgJxpq17j6wPATywKAAAAAOBEKctSJCxhAAAAyHzjGwKA+1kUAAAAAMCpdHcAAACQ8e5rCAAuYlEAAAAAAKdqk9FGNuzfAAAAAJntwoYAIMGqiGUBAAAAAJzq0kWX6rs+AAAAIDMVWiU0BADaeBYGAAAAAHCyJ3OeBAAAgMw0Tq/tDQXAKBYGAAAAAHCyI9KPkEWliwAAACD7+0tjAHAaCwMAAAAAON2pc0+VA7UHAAAAIHs7tTEACFjtYGkAAAAAAKe7Zd0tAAAAkH1ttwo0BgDaVywOAAAAAOBG0wumAwAAQPb0pV7TGwuAwSwOAAAAAOBGPWb1kMLqQgAAACj2BjcFAD1YHAAAAADAra7Lvk7cmNPnnQ4AAEA81aMpANAWsjwAAAAAgFt9u/tbAAAAqOkt1Gt54wHAbYEBAAAAAC7XKauTbKvYBgAAADWt+2IBwMksEAAAAADgZv+79H+b9sAgAAAA6KRYAKBls0QAAAAAgJu9vvV1AAAAGhet0Gt4rAB4gkWaq6C6QJioo7uxbc83r7xZTM4TOU/YdqwLShaIqakN10rXmV199zppldFKVu9bLaZH95M0M8mWY75o4UXC1D3f7f6O64C5HrcDAGezSHO9lPuSMNHnxdwXbX3iXFF1kbGLxnGzj7PtWP+w5g9iaibmTfTta+WCBRdIVahKTM6EvAm2HW8gLSArylfI4YfRP+9wHTDWWXYAIGC1kWWa6djZx8qMohnC/OdkFWXpbmzd9Yg1I2R35W6xc0prSuWxzY/ZepxtM9vKpPxJorCwc7LLs+WShZf4+vXymxW/kYOhg2JiguVB/andzuPVPwNE+ZMOUxmqlE92fKJI4jpgpg1WATsAoL3AQs125rwzZcjqIWSluzC158T0ROkX7GfLcV6bfa1erI0dq/5WYejqoTJ89fCYS16cHDevlS4zukj/YH9bv+cuX3S5seNNSE+Q/1/6///4XKR/jjtqxlGc9832vF677QLAJSyUiIjIF11sJwACVutYqqcjIiJaaxWwEwDavSzW0xEREd2r12y7AdDtr+3dA7RkV/r38V03jTijTsaKbYxt27YRjm3bRmysYWzbtu103/3+3r+DxkVVnXPqs2p9lnlR+1t4nh13RQUAGueuWH76AyBi16iNAwDsEqVfAfCiqI0DALywnwEwIy6L2hgAwGUxo38BEPGNqI0BAHw9Sr8DYLWojQEArNr/AIg4JCoAMHQHRxlUALwmKgAwdK8eZADMiAuiAgBDc0HM6EMANHgzIADw8SiDDoDl4saoAMDA3RjLDT4AIr4bFQAYuO9GGVYAPDrmRR0YAGBePHp4ARCxQ9SBAQC2jzLsANgs6sAAAJv2PwCatBgIADgkSlMC4NlRAYC+e3aTAqAXB0UFAPrmoOg1JwAinhYVAOibp0ZpVgBE7BsVAJh2+0ZpagA8MSoAMO2e0OQAiDz8kgBgOv0tStMDYNOoAMC02aT5ARCxV9QpAwD2jNKWAFgvxqMCAJM2Huu1JwAifhUVAJi0X0ZpWwCsEDdEBQAm7IZYvn0BELF5VABgwjaP0tYAmBVnRgUAFtmZMau9ARDxwqgAwCJ7QZS2B0Av/hYVAFiov0Wv/QEQsUbMjQoAzNfcWD1KNwIg4gdRAYD5+n6UrgXAMnFuVADgXs6NZboXABFPjvGoEQEAjMdTonQzACK+EzUiAIDvRul6ACwRp0UFAMppsUT3AyBiE1MBAFDmxsZRRiMAIr4UdYQBwBejjFoAzIrjoo4gADg2Zo1eAESsHXdGHSEAcEesHWU0AyBim6gjBAC2jjLqATAjDos6AgDg0FhMAESsErdG7TAAuCVWjiIA/teHonYYAHwgyt0JgLHYNyoAdNC/YkwA3LdHxY1RAaBDbohHRhEA8/f2qADQIW+NsmACoBd7RQWADtg9egJg0cyJ86O2GACcF3OiCIBFt3bcFLWFAOCmWCuKAJi4F8V41BYBgPF4YRQBMHlbRW0RANgyigCYml78IWoLAMDvoycApsfsOCRqgwHAwTE7igCYPsvHBVEbCADOj+WjCIDpt07cHLVBAOCmWDuKAOiflzRoMgAAxuNFUQRA/20TtQEAYKsoAmAwevHHqAAwRH+IngAYrMXjsKgAMCrf+BcAESvEhVEBYFS+8S8AItaLW6ICwADcHOtEEQDD97KofQYA4/HiKAKgOT4etY8A4GNRBICLgwAw7icARAAAbvcTAMO0ZVQAcPhPNABEAABsEWV0AkAEAMDmUQSACADA4S8AWmaLqIsAAD4eRQCIAAAc/gJABABgyY8AEAEAOPwFQGtsHnWUAODwFwAiAICIj0YRACIAAIe/AOgotwgC8JEoAoBXx21RAei0efGOKP9NALBxXBoVgE66PV4W5Z4EAA+LY6IC0Ck3xtOizI8AYMnYMSoAnXBlbBBlYQQAY/HFqK0GwAWxShQEwES8Pm6P2joAnBIPj4IAmIxN4/KorQHA4fHAKAiAqXhkHB+18QDIoywdZToIAJaOXaM2FgDbxawo00kAMBZfjdo4APw0FovSLwKAN8UdURsBgC9EL0q/CQCeEFdGBWCoPhyFQQYAj44TowIwcHfFG6IwjABgqfhZVAAG5tZ4fhSGHQC8MK6ICkBfXRdPiEJTAoDlY/eoAPTFpbF2FJoWAPTiXXFzVACmzdnx2Cg0OQBYKQ6PCsCUHRZzotCGAGBGfC7mRgVgUnaIJaLQtgBg0zgrKgAT8vUYi0JbA4Cl4xdRFwqAufHuKHQlAHjRAjcIAnBjPDcKXQsAVog9o94NABfFOlHoagDQi3fHLVEBKMfFw6IwCgHAynFE1BEGsHcsE4VRCgBmxIfiuqgjBuAnMSMKoxoAzImfx3jUjgMYj49HLwoCoFDWj4OidhTArfHyKHeHAKAXr4uLo3YIwBWxSZT5QwCwVHw5bo/acgCnxWOiLBoEAI+NXaK2FMC+cf8oCAAm7plxStQWAfhtzIqCAGDyZsZH4vqoAA02Nz4cvSgIAKbHnPilsUGgoa6NZ0RBANAfG8YhUQEa4uRYMQoCgP7qxeuNDQINsGssEwUBwOAsHu+N86ICDNjnYywKAoDhmBlvjtOiAvTZzc3a7IcAYCxeGcdGBeiDc2PtKAgAmqcXz4uDowJMk33jQVEQADRbL54S/4gKMAU/iJlR2gUBwCaxe1SACbgz3h6FdgcArB3bxryoCwBweTw+Ct0JAFg5fhN3Rb0HgKPi4VHoZgDAI+OHcVtUgPhTLBGF7gcArBCfGemlQsC82Dx6URitAICxeGZsG7dHHQnAdfGcKAgAeEB8KI6P2lnAqbFyFAQARET0YsP4aVwftTOAPWPZKAuCAIAl442xX9TWAsbjczEWBQEAE7FSfCUuidoawJXxzCgIAJiKGfGC2KXxewWAg+JhURAAMJ1WiC1cTQyN9PWYEQUBAP3Si8fHd+OsqMDQXBsvioIAgEFbNbaIA2JuVGAgjoxHR0EAwLA9IF4f2xorhL76YcyOggCAppkZT4vvxJlRgSm7MV4dBdoWAPioYH8fFcCknBCrRIHRCAB8VAD8OpaIAl0JAJgZT43vGDG8F7g13hIFuh4A8MB4Xnwh/hbXRR1BcHqsFQVGMQBgLFaLt8bP4riYF7XDYNtYJsr/AgEAS8dTYqvYJS6N2gFwR7wvelEWDAQA9OIR8ar4ThwSt0dtETg3NowCkw8AYFZsFB+MP8fJcWtUaKDd4v5RYPoDAOjFQ+PJ8bb4SmwfRxtHZEjuio9HLwoMPgCAXjwwNo3Xx2fjD3FIXBEVptnF8YQo0NwAAJaJ9eIVsXX8MvaNC2I8KkzA32JOFGhvAADLxivid3Fl1PmAefHpGIsC3QkAYCzeGtdE/T/gonhaFOhuAABz4o9RIbb1LX9GKwCAT0QdWdwQr48CoxcAwBeijhwOiEdFgdEMAKAXP4k6ErgztorF/O0jAICl4tyoncapsX6U/wYCAHhm1M7ih7FElHsCAQBsH7VTuCyeGwVGIwAA7wKwSzwoyoKAAAAWi0uitho3xduiFwUEALAovhm1tTg0VowCAgCYiLWjtg5z4zMxIwoIAGAyjovaGpwVm0YBAQBMxcejtgK/iKWjgAAApmrNqI3GVfHiKNMFBACwVNTGYu94cJTpBgIAuDpqo3BrvC96UUAAAP1wTNTG4OhYNQoIAKCfdonK0M2LL8esKCAAgH77XlSG6rx4YhQQAMCgbB6Vofl9LBsFBAAwSFtEZeCujVdFAQEADMNnojJQOxrvQwAAw/bVqAzEpfHSKCAAAF8CHA2/iPtFaQIQAMDPo9I3Z8ZTojQJCADgj1GnHXPja7FEFBAAgEVA3XdMrB+lqUAAAEdEnRbcFlvGjChNBgIAuCQqU7ZvrBSl6UAAADNjPCqTdn28I3pR2gAEAPDIqEzaTvGQKG0CAgB4QlQm7NJ4WZQ2AgEAvCYqE/JLC33aDgEAfDYqi+SseGqUtgMBAOwUdYGYG1+PJaIAAgC64KyoWOgDAgBGx9JGAOfrttgqZkQBBAB0yaZRsdAHBACMlndFjQiuj3dGLwogAKCrfhS1BGVnC31AAMCoONDBXy6Ll0cBBACMgl5cH3WE/cpCHxAA4A6A0XF2PC0KIABg1Lww6oi500IfEAAw6j4ZdYT8I1aLAggAGGXbRx0BF8YrwmhfgAAAzojaYXfEl2OpKIAAAHIodnwF8D6xchRAAED3WQF8XrwkelEAAQDc3bujdsjt8QXf7l8wEADAT6J2xB6xYpQFAwQAcHDUljsnXhAFEADAwo3FjS2/p/8zsXgUQAAAi+axUVtql3h0FEAAABPzsqgtc2Y8JwogAIDJ2SZqS1wXH4tZUQABAEze96M23Nz4YTwwCiAAgKn7a9QG2ytWizJ9AAEA/DtqA50Yz4oy/QABAJwYtUGuiHfHYlEAAQD0xzENWt/7tVg2CiAAgP7aL+qQbRePjgIIAGAwdo86JEfE46MAAgAYrN9FHbAL4/UxFgUQAMDgvTzqgNwcn44lowACABie2XFN1D4aj1/HQ6I0AyAAgJ/0cYPfn2OdKM0CCABg/bgz6jS5Mb4dj4jSXIAAAJ4e10edgrNi81guSjsAAgBYMy6IOgGnx5di3ehFaR9AAACz46nx1Tgqro5L4tw4Lf4WX4qXxEOjANzT/wNJI1Y1mdVt+QAAAABJRU5ErkJggg==;" vertex="1" parent="1">
                    <mxGeometry x="100" y="52.260000000000005" width="52.46" height="50" as="geometry"/>
                </mxCell>
            </root>
        </mxGraphModel>
    </diagram>
</mxfile>